SplineFontDB: 3.2
FontName: AmateurGlyphsForEexprs
FullName: Amateur Glyphs For Eexprs
FamilyName: AmateurGlyphsForEexprs
Weight: Book
Copyright: Copyright (c) 2021, Okuno Zankoku
Version: 001.000
ItalicAngle: 0
UnderlinePosition: -100
UnderlineWidth: 50
Ascent: 800
Descent: 200
InvalidEm: 0
sfntRevision: 0x00010000
LayerCount: 2
Layer: 0 1 "Back" 1
Layer: 1 1 "Fore" 0
XUID: [1021 233 -734949127 14859673]
StyleMap: 0x0000
FSType: 0
OS2Version: 4
OS2_WeightWidthSlopeOnly: 0
OS2_UseTypoMetrics: 1
CreationTime: 1627780116
ModificationTime: 1628021078
PfmFamily: 17
TTFWeight: 400
TTFWidth: 5
LineGap: 90
VLineGap: 0
Panose: 2 0 5 9 0 0 0 0 0 0
OS2TypoAscent: 800
OS2TypoAOffset: 0
OS2TypoDescent: -200
OS2TypoDOffset: 0
OS2TypoLinegap: 90
OS2WinAscent: 668
OS2WinAOffset: 0
OS2WinDescent: 207
OS2WinDOffset: 0
HheadAscent: 668
HheadAOffset: 0
HheadDescent: -207
HheadDOffset: 0
OS2SubXSize: 650
OS2SubYSize: 700
OS2SubXOff: 0
OS2SubYOff: 140
OS2SupXSize: 650
OS2SupYSize: 700
OS2SupXOff: 0
OS2SupYOff: 480
OS2StrikeYSize: 49
OS2StrikeYPos: 258
OS2Vendor: 'PfEd'
OS2CodePages: 00000001.00000000
OS2UnicodeRanges: 00000080.00000000.00000000.00000000
MarkAttachClasses: 1
DEI: 91125
ShortTable: cvt  2
  33
  633
EndShort
ShortTable: maxp 16
  1
  0
  10
  70
  3
  0
  0
  2
  0
  1
  1
  0
  64
  46
  0
  0
EndShort
LangName: 1033 "" "" "Regular"
GaspTable: 1 65535 2 0
Encoding: UnicodeBmp
UnicodeInterp: none
NameList: AGL For New Fonts
DisplaySize: -48
AntiAlias: 1
FitToEm: 0
WinInfo: 8814 26 9
BeginPrivate: 0
EndPrivate
TeXData: 1 0 0 346030 173015 115343 0 1048576 115343 783286 444596 497025 792723 393216 433062 380633 303038 157286 324010 404750 52429 2506097 1059062 262144
BeginChars: 65539 81

StartChar: .notdef
Encoding: 65536 -1 0
Width: 600
Flags: W
LayerCount: 2
Fore
SplineSet
33 0 m 1,0,-1
 33 666 l 1,1,-1
 298 666 l 1,2,-1
 298 0 l 1,3,-1
 33 0 l 1,0,-1
66 33 m 1,4,-1
 265 33 l 1,5,-1
 265 633 l 1,6,-1
 66 633 l 1,7,-1
 66 33 l 1,4,-1
EndSplineSet
Validated: 1
EndChar

StartChar: Upsilon1
Encoding: 978 978 3
Width: 600
Flags: W
LayerCount: 2
Fore
SplineSet
462 505 m 2,0,1
 342 274 l 1,2,-1
 342 0 l 1,3,-1
 258 0 l 1,4,-1
 258 274 l 1,5,-1
 58 656 l 1,6,-1
 146 656 l 1,7,-1
 245 461 l 2,8,9
 251 448 251 448 282 386 c 0,10,11
 300 350 300 350 300 348 c 2,12,-1
 304 348 l 1,13,14
 314 367 314 367 323 386 c 2,15,-1
 361 462 l 1,16,-1
 402 546 l 2,17,18
 421 583 421 583 438.5 607 c 128,-1,19
 456 631 456 631 473 644.5 c 128,-1,20
 490 658 490 658 508.5 663 c 128,-1,21
 527 668 527 668 550 668 c 0,22,23
 559 668 559 668 568.5 666.5 c 128,-1,24
 578 665 578 665 586 662 c 1,25,-1
 571 584 l 1,26,27
 565 586 565 586 559 587 c 128,-1,28
 553 588 553 588 548 588 c 0,29,30
 537 588 537 588 528 585 c 0,31,32
 522 583 522 583 508 574 c 0,33,34
 499 567 499 567 488 548 c 0,35,36
 467 515 467 515 462 505 c 2,0,1
EndSplineSet
Validated: 1
EndChar

StartChar: phi1
Encoding: 981 981 4
Width: 600
Flags: W
LayerCount: 2
Fore
SplineSet
340 495 m 2,0,1
 383 492 383 492 422.5 474.5 c 128,-1,2
 462 457 462 457 491.5 425.5 c 128,-1,3
 521 394 521 394 538.5 348 c 128,-1,4
 556 302 556 302 556 244 c 0,5,6
 556 185 556 185 538.5 139 c 128,-1,7
 521 93 521 93 491.5 61 c 128,-1,8
 462 29 462 29 422.5 11.5 c 128,-1,9
 383 -6 383 -6 340 -9 c 1,10,-1
 340 -179 l 1,11,-1
 260 -179 l 1,12,-1
 260 -9 l 1,13,14
 216 -6 216 -6 177 11.5 c 128,-1,15
 138 29 138 29 108.5 61 c 128,-1,16
 79 93 79 93 61.5 139 c 128,-1,17
 44 185 44 185 44 244 c 0,18,19
 44 302 44 302 61.5 348 c 128,-1,20
 79 394 79 394 108 426 c 1,21,-1
 166 376 l 1,22,23
 128 329 128 329 128 244 c 256,24,25
 128 159 128 159 165.5 110.5 c 128,-1,26
 203 62 203 62 260 57 c 1,27,-1
 260 429 l 2,28,29
 260 447 260 447 260.5 455.5 c 128,-1,30
 261 464 261 464 263 475 c 128,-1,31
 265 486 265 486 270 490.5 c 128,-1,32
 275 495 275 495 284 495 c 2,33,-1
 340 495 l 2,0,1
472 244 m 256,34,35
 472 329 472 329 434.5 376.5 c 128,-1,36
 397 424 397 424 340 429 c 1,37,-1
 340 391 l 1,38,-1
 340 57 l 1,39,40
 397 62 397 62 434.5 110.5 c 128,-1,41
 472 159 472 159 472 244 c 256,34,35
EndSplineSet
Validated: 1
EndChar

StartChar: omega1
Encoding: 982 982 5
Width: 600
Flags: W
LayerCount: 2
Fore
SplineSet
190 -12 m 0,0,1
 157 -12 157 -12 128.5 3 c 128,-1,2
 100 18 100 18 79 48 c 128,-1,3
 58 78 58 78 46 123.5 c 128,-1,4
 34 169 34 169 34 229 c 0,5,6
 34 307 34 307 60 374 c 0,7,8
 74 408 74 408 90 439 c 1,9,10
 77 438 77 438 63 437 c 0,11,12
 45 436 45 436 22 435 c 1,13,-1
 22 502 l 1,14,-1
 573 502 l 1,15,-1
 573 435 l 1,16,-1
 517 435 l 1,17,18
 531 408 531 408 542 378 c 0,19,20
 553 346 553 346 559.5 310 c 128,-1,21
 566 274 566 274 566 232 c 0,22,23
 566 109 566 109 523.5 48.5 c 128,-1,24
 481 -12 481 -12 412 -12 c 0,25,26
 377 -12 377 -12 347.5 7.5 c 128,-1,27
 318 27 318 27 301 69 c 1,28,-1
 297 69 l 1,29,30
 280 27 280 27 252.5 7.5 c 128,-1,31
 225 -12 225 -12 190 -12 c 0,0,1
180 439 m 1,32,33
 169 423 169 423 160 406 c 0,34,35
 145 377 145 377 134.5 347 c 128,-1,36
 124 317 124 317 119 284.5 c 128,-1,37
 114 252 114 252 114 214 c 0,38,39
 114 138 114 138 137 97 c 128,-1,40
 160 56 160 56 195 56 c 0,41,42
 223 56 223 56 243.5 83 c 128,-1,43
 264 110 264 110 264 178 c 0,44,45
 264 208 264 208 262 238.5 c 128,-1,46
 260 269 260 269 256 308 c 1,47,-1
 341 308 l 1,48,49
 337 269 337 269 335.5 238.5 c 128,-1,50
 334 208 334 208 334 178 c 0,51,52
 334 143 334 143 339.5 119.5 c 128,-1,53
 345 96 345 96 354 82 c 128,-1,54
 363 68 363 68 375.5 62 c 128,-1,55
 388 56 388 56 402 56 c 0,56,57
 438 56 438 56 460 97.5 c 128,-1,58
 482 139 482 139 482 227 c 0,59,60
 482 264 482 264 477.5 294.5 c 128,-1,61
 473 325 473 325 464 353 c 128,-1,62
 455 381 455 381 440 408 c 0,63,64
 434 421 434 421 426 435 c 1,65,-1
 209 435 l 1,66,-1
 203 436 l 1,67,-1
 192 439 l 2,68,69
 187 439 187 439 180 439 c 1,32,33
EndSplineSet
Validated: 1
EndChar

StartChar: uni03D8
Encoding: 984 984 6
Width: 600
Flags: W
LayerCount: 2
Fore
SplineSet
300 61 m 0,0,1
 337 61 337 61 368 80 c 128,-1,2
 399 99 399 99 420.5 134.5 c 128,-1,3
 442 170 442 170 454 219.5 c 128,-1,4
 466 269 466 269 466 331 c 0,5,6
 466 392 466 392 454 441 c 128,-1,7
 442 490 442 490 420.5 524 c 128,-1,8
 399 558 399 558 368 576.5 c 128,-1,9
 337 595 337 595 300 595 c 0,10,11
 262 595 262 595 231.5 576.5 c 128,-1,12
 201 558 201 558 179.5 524 c 128,-1,13
 158 490 158 490 146 441 c 128,-1,14
 134 392 134 392 134 331 c 0,15,16
 134 269 134 269 146 219.5 c 128,-1,17
 158 170 158 170 179.5 134.5 c 128,-1,18
 201 99 201 99 231.5 80 c 128,-1,19
 262 61 262 61 300 61 c 0,0,1
336 -9 m 1,20,-1
 336 -179 l 1,21,-1
 264 -179 l 1,22,-1
 264 -134 l 1,23,-1
 264 -9 l 1,24,25
 229 -4 229 -4 198 12 c 0,26,27
 152 36 152 36 118.5 80.5 c 128,-1,28
 85 125 85 125 66.5 188.5 c 128,-1,29
 48 252 48 252 48 331 c 128,-1,30
 48 410 48 410 66.5 472.5 c 128,-1,31
 85 535 85 535 118.5 578.5 c 128,-1,32
 152 622 152 622 198 645 c 128,-1,33
 244 668 244 668 300 668 c 0,34,35
 355 668 355 668 401.5 644.5 c 128,-1,36
 448 621 448 621 481.5 577.5 c 128,-1,37
 515 534 515 534 533.5 471.5 c 128,-1,38
 552 409 552 409 552 331 c 0,39,40
 552 252 552 252 533.5 188.5 c 128,-1,41
 515 125 515 125 481.5 80.5 c 128,-1,42
 448 36 448 36 402 12 c 0,43,44
 371 -4 371 -4 336 -9 c 1,20,-1
EndSplineSet
Validated: 1
EndChar

StartChar: uni03F1
Encoding: 1009 1009 7
Width: 600
Flags: W
LayerCount: 2
Fore
SplineSet
311 495 m 0,0,1
 358 495 358 495 398.5 477.5 c 128,-1,2
 439 460 439 460 468.5 427 c 128,-1,3
 498 394 498 394 514.5 347 c 128,-1,4
 531 300 531 300 531 242 c 0,5,6
 531 189 531 189 516 147 c 128,-1,7
 501 105 501 105 474.5 75.5 c 128,-1,8
 448 46 448 46 411 30.5 c 128,-1,9
 374 15 374 15 329 15 c 0,10,11
 281 15 281 15 236.5 35.5 c 128,-1,12
 192 56 192 56 159 96 c 1,13,14
 160 85 160 85 161 70.5 c 128,-1,15
 162 56 162 56 162.5 50 c 128,-1,16
 163 44 163 44 164 35 c 128,-1,17
 165 26 165 26 167 18.5 c 128,-1,18
 169 11 169 11 172 3 c 0,19,20
 187 -34 187 -34 220 -61 c 0,21,22
 245 -82 245 -82 294 -94 c 0,23,24
 348 -107 348 -107 396 -114 c 0,25,26
 429 -119 429 -119 456 -126 c 0,27,28
 492 -134 492 -134 501 -140 c 1,29,-1
 485 -207 l 1,30,31
 454 -199 454 -199 435 -196 c 0,32,33
 424 -195 424 -195 407.5 -192.5 c 128,-1,34
 391 -190 391 -190 379 -188 c 0,35,36
 287 -174 287 -174 250 -161 c 0,37,38
 189 -140 189 -140 152 -100 c 0,39,40
 111 -56 111 -56 90 16 c 0,41,42
 83 39 83 39 79.5 66 c 128,-1,43
 76 93 76 93 75.5 116.5 c 128,-1,44
 75 140 75 140 75 188 c 0,45,46
 75 259 75 259 91 316 c 128,-1,47
 107 373 107 373 137 413 c 128,-1,48
 167 453 167 453 211 474 c 128,-1,49
 255 495 255 495 311 495 c 0,0,1
310 427 m 0,50,51
 271 427 271 427 242 411 c 128,-1,52
 213 395 213 395 193.5 366 c 128,-1,53
 174 337 174 337 164.5 295.5 c 128,-1,54
 155 254 155 254 155 204 c 2,55,-1
 155 166 l 1,56,57
 192 115 192 115 231.5 96.5 c 128,-1,58
 271 78 271 78 309 78 c 0,59,60
 375 78 375 78 410.5 122.5 c 128,-1,61
 446 167 446 167 446 242 c 0,62,63
 446 325 446 325 410.5 376 c 128,-1,64
 375 427 375 427 310 427 c 0,50,51
EndSplineSet
Validated: 1
EndChar

StartChar: uni03F4
Encoding: 1012 1012 8
Width: 600
Flags: W
LayerCount: 2
Fore
SplineSet
300 61 m 0,0,1
 337 61 337 61 368 80 c 128,-1,2
 399 99 399 99 420.5 134.5 c 128,-1,3
 442 170 442 170 454 220 c 0,4,5
 464 260 464 260 466 309 c 1,6,-1
 134 309 l 1,7,8
 136 260 136 260 146 220 c 0,9,10
 158 170 158 170 179.5 134.5 c 128,-1,11
 201 99 201 99 231.5 80 c 128,-1,12
 262 61 262 61 300 61 c 0,0,1
300 -12 m 0,13,14
 244 -12 244 -12 198 12 c 128,-1,15
 152 36 152 36 118.5 80.5 c 128,-1,16
 85 125 85 125 66.5 188.5 c 128,-1,17
 48 252 48 252 48 331 c 128,-1,18
 48 410 48 410 66.5 472.5 c 128,-1,19
 85 535 85 535 118.5 578.5 c 128,-1,20
 152 622 152 622 198 645 c 128,-1,21
 244 668 244 668 300 668 c 0,22,23
 355 668 355 668 401.5 644.5 c 128,-1,24
 448 621 448 621 481.5 577.5 c 128,-1,25
 515 534 515 534 533.5 471.5 c 128,-1,26
 552 409 552 409 552 331 c 0,27,28
 552 252 552 252 533.5 188.5 c 128,-1,29
 515 125 515 125 481.5 80.5 c 128,-1,30
 448 36 448 36 401.5 12 c 128,-1,31
 355 -12 355 -12 300 -12 c 0,13,14
136 381 m 1,32,-1
 464 381 l 1,33,34
 461 413 461 413 454 441 c 0,35,36
 442 490 442 490 420.5 524 c 128,-1,37
 399 558 399 558 368 576.5 c 128,-1,38
 337 595 337 595 300 595 c 0,39,40
 262 595 262 595 231.5 576.5 c 128,-1,41
 201 558 201 558 179.5 524 c 128,-1,42
 158 490 158 490 146 441 c 0,43,44
 139 413 139 413 136 381 c 1,32,-1
EndSplineSet
Validated: 1
EndChar

StartChar: reflexsubset
Encoding: 8838 8838 9
Width: 600
Flags: W
LayerCount: 2
Fore
SplineSet
55 0 m 1,0,-1
 55 62 l 1,1,-1
 559 62 l 1,2,-1
 559 0 l 1,3,-1
 55 0 l 1,0,-1
559 133 m 1,4,-1
 276 133 l 2,5,6
 179 133 179 133 111 190 c 128,-1,7
 43 247 43 247 43 332 c 0,8,9
 43 414 43 414 111 474 c 0,10,11
 176 531 176 531 276 531 c 2,12,-1
 559 531 l 1,13,-1
 559 469 l 1,14,-1
 276 469 l 2,15,16
 208 469 208 469 162 428 c 0,17,18
 116 389 116 389 116 332 c 128,-1,20
 116 275 116 275 163 235 c 128,-1,22
 210 195 210 195 276 195 c 2,23,-1
 559 195 l 1,24,-1
 559 133 l 1,4,-1
EndSplineSet
Validated: 1
EndChar

StartChar: element
Encoding: 8712 8712 10
Width: 600
Flags: W
LayerCount: 2
Fore
SplineSet
559 100 m 1,0,-1
 276 100 l 2,1,2
 178 100 178 100 111 167 c 0,3,4
 43 235 43 235 43 333 c 0,5,6
 43 430 43 430 111 499 c 4,7,8
 178 566 178 566 276 566 c 2,9,-1
 559 566 l 1,10,-1
 559 493 l 1,11,-1
 276 493 l 2,12,13
 208 493 208 493 162 446 c 0,14,15
 129 413 129 413 120 370 c 1,16,-1
 559 370 l 1,17,-1
 559 297 l 1,18,-1
 120 297 l 1,19,20
 129 253 129 253 163 220 c 0,21,22
 210 173 210 173 276 173 c 2,23,-1
 559 173 l 1,24,-1
 559 100 l 1,0,-1
EndSplineSet
Validated: 1
EndChar

StartChar: uni2031
Encoding: 8241 8241 11
Width: 600
Flags: W
LayerCount: 2
Fore
SplineSet
498 -12 m 256,0,1
 454 -12 454 -12 426 22 c 0,2,3
 400 54 400 54 400 120 c 0,4,5
 400 183 400 183 426 215 c 0,6,7
 454 249 454 249 498 249 c 256,8,9
 543 249 543 249 570 215 c 0,10,11
 598 181 598 181 598 120 c 0,12,13
 598 56 598 56 570 22 c 0,14,15
 543 -12 543 -12 498 -12 c 256,0,1
498 30 m 256,16,17
 521 30 521 30 536 51.5 c 128,-1,18
 551 73 551 73 551 120 c 0,19,20
 551 165 551 165 536 185.5 c 128,-1,21
 521 206 521 206 498 206 c 256,22,23
 475 206 475 206 460 185.5 c 128,-1,24
 445 165 445 165 445 120 c 0,25,26
 445 73 445 73 460 51.5 c 128,-1,27
 475 30 475 30 498 30 c 256,16,17
145 389 m 256,28,29
 93 389 93 389 60.5 423.5 c 128,-1,30
 28 458 28 458 28 521 c 0,31,32
 28 582 28 582 60.5 616 c 128,-1,33
 93 650 93 650 145 650 c 256,34,35
 197 650 197 650 229.5 616 c 128,-1,36
 262 582 262 582 262 521 c 0,37,38
 262 458 262 458 229.5 423.5 c 128,-1,39
 197 389 197 389 145 389 c 256,28,29
145 431 m 256,40,41
 172 431 172 431 189.5 452.5 c 128,-1,42
 207 474 207 474 207 521 c 0,43,44
 207 566 207 566 189.5 587 c 128,-1,45
 172 608 172 608 145 608 c 256,46,47
 118 608 118 608 100 587 c 128,-1,48
 82 566 82 566 82 521 c 0,49,50
 82 474 82 474 100 452.5 c 128,-1,51
 118 431 118 431 145 431 c 256,40,41
65 278 m 1,52,-1
 51 309 l 1,53,-1
 531 500 l 1,54,-1
 555 442 l 1,55,-1
 65 278 l 1,52,-1
102 -12 m 256,56,57
 58 -12 58 -12 30 22 c 0,58,59
 3 56 3 56 3 120 c 0,60,61
 3 181 3 181 30 215 c 0,62,63
 58 249 58 249 102 249 c 256,64,65
 146 249 146 249 173 215 c 128,-1,66
 200 181 200 181 200 120 c 0,67,68
 200 57 200 57 173 22.5 c 128,-1,69
 146 -12 146 -12 102 -12 c 256,56,57
102 30 m 256,70,71
 125 30 125 30 139.5 51.5 c 128,-1,72
 154 73 154 73 154 120 c 0,73,74
 154 165 154 165 139.5 185.5 c 128,-1,75
 125 206 125 206 102 206 c 256,76,77
 79 206 79 206 64 186 c 0,78,79
 48 166 48 166 48 120 c 0,80,81
 48 74 48 74 64 52 c 0,82,83
 79 30 79 30 102 30 c 256,70,71
300 -12 m 256,84,85
 256 -12 256 -12 228.5 22.5 c 128,-1,86
 201 57 201 57 201 120 c 0,87,88
 201 181 201 181 228.5 215 c 128,-1,89
 256 249 256 249 300 249 c 256,90,91
 344 249 344 249 372 215 c 0,92,93
 399 181 399 181 399 120 c 0,94,95
 399 56 399 56 372 22 c 0,96,97
 344 -12 344 -12 300 -12 c 256,84,85
300 30 m 256,98,99
 323 30 323 30 338 52 c 0,100,101
 353 74 353 74 353 120 c 0,102,103
 353 166 353 166 338 186 c 0,104,105
 323 206 323 206 300 206 c 256,106,107
 277 206 277 206 262 185.5 c 128,-1,108
 247 165 247 165 247 120 c 0,109,110
 247 73 247 73 262 51.5 c 128,-1,111
 277 30 277 30 300 30 c 256,98,99
EndSplineSet
Validated: 2049
EndChar

StartChar: notsubset
Encoding: 8836 8836 12
Width: 600
Flags: W
LayerCount: 2
Fore
SplineSet
559 100 m 1,0,-1
 276 100 l 2,1,2
 178 100 178 100 111 167 c 0,3,4
 43 235 43 235 43 333 c 0,5,6
 43 430 43 430 111 499 c 4,7,8
 178 566 178 566 276 566 c 2,9,-1
 559 566 l 1,10,-1
 559 493 l 1,11,-1
 276 493 l 2,12,13
 209 493 209 493 162.5 446 c 128,-1,14
 116 399 116 399 116 333 c 0,15,16
 116 266 116 266 163 220 c 0,17,18
 210 173 210 173 276 173 c 2,19,-1
 559 173 l 1,20,-1
 559 100 l 1,0,-1
208 2 m 1,21,-1
 125 2 l 1,22,-1
 446 675 l 1,23,-1
 529 675 l 1,24,-1
 208 2 l 1,21,-1
EndSplineSet
Validated: 5
EndChar

StartChar: uni2288
Encoding: 8840 8840 13
Width: 600
Flags: W
LayerCount: 2
Fore
SplineSet
55 0 m 1,0,-1
 55 62 l 1,1,-1
 559 62 l 1,2,-1
 559 0 l 1,3,-1
 55 0 l 1,0,-1
559 133 m 1,4,-1
 276 133 l 2,5,6
 178 133 178 133 111 190 c 0,7,8
 43 248 43 248 43 332 c 0,9,10
 43 414 43 414 111 474 c 0,11,12
 177 531 177 531 276 531 c 2,13,-1
 559 531 l 1,14,-1
 559 469 l 1,15,-1
 276 468 l 2,16,17
 208 467 208 467 162 428 c 0,18,19
 116 389 116 389 116 332 c 0,20,21
 116 275 116 275 163 235 c 0,22,23
 210 195 210 195 276 195 c 2,24,-1
 559 195 l 1,25,-1
 559 133 l 1,4,-1
198 -54 m 1,26,-1
 115 -54 l 1,27,-1
 436 619 l 1,28,-1
 519 619 l 1,29,-1
 198 -54 l 1,26,-1
EndSplineSet
Validated: 5
EndChar

StartChar: notelement
Encoding: 8713 8713 14
Width: 600
Flags: W
LayerCount: 2
Fore
SplineSet
559 100 m 1,0,-1
 276 100 l 2,1,2
 178 100 178 100 111 167 c 0,3,4
 43 235 43 235 43 333 c 0,5,6
 43 430 43 430 111 499 c 4,7,8
 178 566 178 566 276 566 c 2,9,-1
 559 566 l 1,10,-1
 559 493 l 1,11,-1
 276 493 l 2,12,13
 208 493 208 493 162 446 c 0,14,15
 129 413 129 413 120 370 c 1,16,-1
 559 370 l 1,17,-1
 559 297 l 1,18,-1
 120 297 l 1,19,20
 129 253 129 253 163 220 c 0,21,22
 210 173 210 173 276 173 c 2,23,-1
 559 173 l 1,24,-1
 559 100 l 1,0,-1
218 2 m 5,25,-1
 135 2 l 5,26,-1
 456 675 l 5,27,-1
 539 675 l 5,28,-1
 218 2 l 5,25,-1
EndSplineSet
Validated: 5
EndChar

StartChar: uni2204
Encoding: 8708 8708 15
Width: 600
Flags: W
LayerCount: 2
Fore
SplineSet
175 -95 m 5,0,-1
 92 -95 l 5,1,-1
 356 749 l 5,2,-1
 439 749 l 5,3,-1
 175 -95 l 5,0,-1
70 0 m 1,4,-1
 70 71 l 1,5,-1
 402 71 l 1,6,-1
 402 309 l 1,7,-1
 130 309 l 1,8,-1
 130 380 l 1,9,-1
 402 380 l 1,10,-1
 402 586 l 1,11,-1
 80 586 l 1,12,-1
 80 656 l 1,13,-1
 486 656 l 1,14,-1
 486 0 l 1,15,-1
 70 0 l 1,4,-1
EndSplineSet
Validated: 5
EndChar

StartChar: uni220C
Encoding: 8716 8716 16
Width: 600
Flags: W
LayerCount: 2
Fore
SplineSet
61 100 m 1,0,-1
 61 173 l 1,1,-1
 344 173 l 2,2,3
 410 173 410 173 457 220 c 0,4,5
 491 253 491 253 500 297 c 1,6,-1
 61 297 l 1,7,-1
 61 370 l 1,8,-1
 500 370 l 1,9,10
 490 413 490 413 458 446 c 0,11,12
 412 493 412 493 344 493 c 2,13,-1
 61 493 l 1,14,-1
 61 566 l 1,15,-1
 344 566 l 6,16,17
 442 566 442 566 509 499 c 0,18,19
 577 430 577 430 577 333 c 0,20,21
 577 235 577 235 509 167 c 0,22,23
 442 100 442 100 344 100 c 2,24,-1
 61 100 l 1,0,-1
168 2 m 5,25,-1
 85 2 l 5,26,-1
 406 675 l 5,27,-1
 489 675 l 5,28,-1
 168 2 l 5,25,-1
EndSplineSet
Validated: 5
EndChar

StartChar: uni2289
Encoding: 8841 8841 17
Width: 600
Flags: W
LayerCount: 2
Fore
SplineSet
55 0 m 1,0,-1
 55 62 l 1,1,-1
 559 62 l 1,2,-1
 559 0 l 1,3,-1
 55 0 l 1,0,-1
55 133 m 1,4,-1
 56 195 l 1,5,-1
 339 195 l 2,6,7
 405 195 405 195 452 235 c 128,-1,8
 499 275 499 275 499 332 c 128,-1,9
 499 389 499 389 453 428 c 0,10,11
 406 468 406 468 339 468 c 2,12,-1
 56 469 l 1,13,-1
 56 531 l 1,14,-1
 339 531 l 2,15,16
 438 531 438 531 504 474 c 0,17,18
 572 414 572 414 572 332 c 0,19,20
 572 248 572 248 504 190 c 0,21,22
 437 133 437 133 338 133 c 2,23,-1
 55 133 l 1,4,-1
188 -54 m 5,24,-1
 105 -54 l 5,25,-1
 426 619 l 5,26,-1
 509 619 l 5,27,-1
 188 -54 l 5,24,-1
EndSplineSet
Validated: 5
EndChar

StartChar: uni2285
Encoding: 8837 8837 18
Width: 600
Flags: W
LayerCount: 2
Fore
SplineSet
51 100 m 1,0,-1
 51 173 l 1,1,-1
 334 173 l 2,2,3
 400 173 400 173 447 220 c 0,4,5
 494 266 494 266 494 333 c 0,6,7
 494 399 494 399 447.5 446 c 128,-1,8
 401 493 401 493 334 493 c 2,9,-1
 51 493 l 1,10,-1
 51 566 l 1,11,-1
 334 566 l 6,12,13
 432 566 432 566 499 499 c 0,14,15
 567 430 567 430 567 333 c 0,16,17
 567 235 567 235 499 167 c 0,18,19
 432 100 432 100 334 100 c 2,20,-1
 51 100 l 1,0,-1
158 2 m 5,21,-1
 75 2 l 5,22,-1
 396 675 l 5,23,-1
 479 675 l 5,24,-1
 158 2 l 5,21,-1
EndSplineSet
Validated: 5
EndChar

StartChar: similar
Encoding: 8764 8764 19
Width: 600
Flags: W
LayerCount: 2
Fore
SplineSet
388 257 m 4,0,1
 358 257 358 257 334.5 270 c 132,-1,2
 311 283 311 283 290.5 299 c 132,-1,3
 270 315 270 315 250.5 328 c 132,-1,4
 231 341 231 341 210 341 c 4,5,6
 187 341 187 341 166.5 324 c 132,-1,7
 146 307 146 307 129 255 c 5,8,-1
 76 278 l 5,9,10
 102 348 102 348 138 375.5 c 132,-1,11
 174 403 174 403 212 403 c 4,12,13
 242 403 242 403 265.5 390 c 132,-1,14
 289 377 289 377 309.5 361 c 132,-1,15
 330 345 330 345 349.5 332 c 132,-1,16
 369 319 369 319 390 319 c 4,17,18
 402 319 402 319 412.5 322.5 c 132,-1,19
 423 326 423 326 433.5 335.5 c 132,-1,20
 444 345 444 345 453 362 c 132,-1,21
 462 379 462 379 471 405 c 5,22,-1
 524 381 l 5,23,24
 498 311 498 311 462 284 c 132,-1,25
 426 257 426 257 388 257 c 4,0,1
EndSplineSet
Validated: 1
EndChar

StartChar: uni2243
Encoding: 8771 8771 20
Width: 600
Flags: W
LayerCount: 2
Fore
SplineSet
85 194 m 1,0,-1
 85 256 l 1,1,-1
 515 256 l 1,2,-1
 515 194 l 1,3,-1
 85 194 l 1,0,-1
388 367 m 4,4,5
 358 367 358 367 334.5 380 c 132,-1,6
 311 393 311 393 290.5 409 c 132,-1,7
 270 425 270 425 250.5 438 c 132,-1,8
 231 451 231 451 210 451 c 4,9,10
 187 451 187 451 166.5 434 c 132,-1,11
 146 417 146 417 129 365 c 5,12,-1
 76 388 l 5,13,14
 102 458 102 458 138 485.5 c 132,-1,15
 174 513 174 513 212 513 c 4,16,17
 242 513 242 513 265.5 500 c 132,-1,18
 289 487 289 487 309.5 471 c 132,-1,19
 330 455 330 455 349.5 442 c 132,-1,20
 369 429 369 429 390 429 c 4,21,22
 402 429 402 429 412.5 432.5 c 132,-1,23
 423 436 423 436 433.5 445.5 c 132,-1,24
 444 455 444 455 453 472 c 132,-1,25
 462 489 462 489 471 515 c 5,26,-1
 524 491 l 5,27,28
 498 421 498 421 462 394 c 132,-1,29
 426 367 426 367 388 367 c 4,4,5
EndSplineSet
Validated: 1
EndChar

StartChar: uni2244
Encoding: 8772 8772 21
Width: 600
Flags: W
LayerCount: 2
Fore
SplineSet
92 80 m 5,0,-1
 407 610 l 5,1,-1
 468 610 l 5,2,-1
 153 80 l 5,3,-1
 92 80 l 5,0,-1
85 194 m 1,4,-1
 85 256 l 1,5,-1
 515 256 l 1,6,-1
 515 194 l 1,7,-1
 85 194 l 1,4,-1
388 367 m 0,8,9
 358 367 358 367 334.5 380 c 128,-1,10
 311 393 311 393 290.5 409 c 128,-1,11
 270 425 270 425 250.5 438 c 128,-1,12
 231 451 231 451 210 451 c 0,13,14
 187 451 187 451 166.5 434 c 128,-1,15
 146 417 146 417 129 365 c 1,16,-1
 76 388 l 1,17,18
 102 458 102 458 138 485.5 c 128,-1,19
 174 513 174 513 212 513 c 0,20,21
 242 513 242 513 265.5 500 c 128,-1,22
 289 487 289 487 309.5 471 c 128,-1,23
 330 455 330 455 349.5 442 c 128,-1,24
 369 429 369 429 390 429 c 0,25,26
 402 429 402 429 412.5 432.5 c 128,-1,27
 423 436 423 436 433.5 445.5 c 128,-1,28
 444 455 444 455 453 472 c 128,-1,29
 462 489 462 489 471 515 c 1,30,-1
 524 491 l 1,31,32
 498 421 498 421 462 394 c 128,-1,33
 426 367 426 367 388 367 c 0,8,9
EndSplineSet
Validated: 5
EndChar

StartChar: congruent
Encoding: 8773 8773 22
Width: 600
Flags: W
LayerCount: 2
Fore
SplineSet
85 284 m 5,0,-1
 85 346 l 5,1,-1
 515 346 l 5,2,-1
 515 284 l 5,3,-1
 85 284 l 5,0,-1
85 174 m 5,4,-1
 85 236 l 5,5,-1
 515 236 l 5,6,-1
 515 174 l 5,7,-1
 85 174 l 5,4,-1
388 387 m 4,8,9
 358 387 358 387 334.5 400 c 132,-1,10
 311 413 311 413 290.5 429 c 132,-1,11
 270 445 270 445 250.5 458 c 132,-1,12
 231 471 231 471 210 471 c 4,13,14
 187 471 187 471 166.5 454 c 132,-1,15
 146 437 146 437 129 385 c 5,16,-1
 76 408 l 5,17,18
 102 478 102 478 138 505.5 c 132,-1,19
 174 533 174 533 212 533 c 4,20,21
 242 533 242 533 265.5 520 c 132,-1,22
 289 507 289 507 309.5 491 c 132,-1,23
 330 475 330 475 349.5 462 c 132,-1,24
 369 449 369 449 390 449 c 4,25,26
 402 449 402 449 412.5 452.5 c 132,-1,27
 423 456 423 456 433.5 465.5 c 132,-1,28
 444 475 444 475 453 492 c 132,-1,29
 462 509 462 509 471 535 c 5,30,-1
 524 511 l 5,31,32
 498 441 498 441 462 414 c 132,-1,33
 426 387 426 387 388 387 c 4,8,9
EndSplineSet
Validated: 1
EndChar

StartChar: uni2247
Encoding: 8775 8775 23
Width: 600
Flags: W
LayerCount: 2
Fore
SplineSet
92 80 m 5,0,-1
 407 610 l 5,1,-1
 468 610 l 5,2,-1
 153 80 l 5,3,-1
 92 80 l 5,0,-1
85 284 m 1,4,-1
 85 346 l 1,5,-1
 515 346 l 1,6,-1
 515 284 l 1,7,-1
 85 284 l 1,4,-1
85 174 m 1,8,-1
 85 236 l 1,9,-1
 515 236 l 1,10,-1
 515 174 l 1,11,-1
 85 174 l 1,8,-1
388 387 m 0,12,13
 358 387 358 387 334.5 400 c 128,-1,14
 311 413 311 413 290.5 429 c 128,-1,15
 270 445 270 445 250.5 458 c 128,-1,16
 231 471 231 471 210 471 c 0,17,18
 187 471 187 471 166.5 454 c 128,-1,19
 146 437 146 437 129 385 c 1,20,-1
 76 408 l 1,21,22
 102 478 102 478 138 505.5 c 128,-1,23
 174 533 174 533 212 533 c 0,24,25
 242 533 242 533 265.5 520 c 128,-1,26
 289 507 289 507 309.5 491 c 128,-1,27
 330 475 330 475 349.5 462 c 128,-1,28
 369 449 369 449 390 449 c 0,29,30
 402 449 402 449 412.5 452.5 c 128,-1,31
 423 456 423 456 433.5 465.5 c 128,-1,32
 444 475 444 475 453 492 c 128,-1,33
 462 509 462 509 471 535 c 1,34,-1
 524 511 l 1,35,36
 498 441 498 441 462 414 c 128,-1,37
 426 387 426 387 388 387 c 0,12,13
EndSplineSet
Validated: 2053
EndChar

StartChar: uni2249
Encoding: 8777 8777 24
Width: 600
Flags: W
LayerCount: 2
Fore
SplineSet
145 50 m 5,0,-1
 407 610 l 1,1,-1
 468 610 l 1,2,-1
 206 50 l 5,3,-1
 145 50 l 5,0,-1
388 150 m 0,4,5
 358 150 358 150 334.5 163 c 128,-1,6
 311 176 311 176 290.5 192 c 128,-1,7
 270 208 270 208 250.5 221 c 128,-1,8
 231 234 231 234 210 234 c 0,9,10
 187 234 187 234 166.5 217 c 128,-1,11
 146 200 146 200 129 148 c 1,12,-1
 76 171 l 1,13,14
 102 241 102 241 138 268.5 c 128,-1,15
 174 296 174 296 212 296 c 0,16,17
 242 296 242 296 265.5 283 c 128,-1,18
 289 270 289 270 309.5 254 c 128,-1,19
 330 238 330 238 349.5 225 c 128,-1,20
 369 212 369 212 390 212 c 0,21,22
 402 212 402 212 412.5 215.5 c 128,-1,23
 423 219 423 219 433.5 228.5 c 128,-1,24
 444 238 444 238 453 255 c 128,-1,25
 462 272 462 272 471 298 c 1,26,-1
 524 274 l 1,27,28
 498 204 498 204 462 177 c 128,-1,29
 426 150 426 150 388 150 c 0,4,5
388 362 m 0,30,31
 358 362 358 362 334.5 375 c 128,-1,32
 311 388 311 388 290.5 404 c 128,-1,33
 270 420 270 420 250.5 433 c 128,-1,34
 231 446 231 446 210 446 c 0,35,36
 187 446 187 446 166.5 429 c 128,-1,37
 146 412 146 412 129 360 c 1,38,-1
 76 383 l 1,39,40
 102 453 102 453 138 480.5 c 128,-1,41
 174 508 174 508 212 508 c 0,42,43
 242 508 242 508 265.5 495 c 128,-1,44
 289 482 289 482 309.5 466 c 128,-1,45
 330 450 330 450 349.5 437 c 128,-1,46
 369 424 369 424 390 424 c 0,47,48
 402 424 402 424 412.5 427.5 c 128,-1,49
 423 431 423 431 433.5 440.5 c 128,-1,50
 444 450 444 450 453 467 c 128,-1,51
 462 484 462 484 471 510 c 1,52,-1
 524 486 l 1,53,54
 498 416 498 416 462 389 c 128,-1,55
 426 362 426 362 388 362 c 0,30,31
EndSplineSet
Validated: 5
EndChar

StartChar: uni2241
Encoding: 8769 8769 25
Width: 600
Flags: W
LayerCount: 2
Fore
SplineSet
177 140 m 1,0,-1
 367 520 l 5,1,-1
 428 520 l 5,2,-1
 243 140 l 1,3,-1
 177 140 l 1,0,-1
388 257 m 0,4,5
 358 257 358 257 334.5 270 c 128,-1,6
 311 283 311 283 290.5 299 c 128,-1,7
 270 315 270 315 250.5 328 c 128,-1,8
 231 341 231 341 210 341 c 0,9,10
 187 341 187 341 166.5 324 c 128,-1,11
 146 307 146 307 129 255 c 1,12,-1
 76 278 l 1,13,14
 102 348 102 348 138 375.5 c 128,-1,15
 174 403 174 403 212 403 c 0,16,17
 242 403 242 403 265.5 390 c 128,-1,18
 289 377 289 377 309.5 361 c 128,-1,19
 330 345 330 345 349.5 332 c 128,-1,20
 369 319 369 319 390 319 c 0,21,22
 402 319 402 319 412.5 322.5 c 128,-1,23
 423 326 423 326 433.5 335.5 c 128,-1,24
 444 345 444 345 453 362 c 128,-1,25
 462 379 462 379 471 405 c 1,26,-1
 524 381 l 1,27,28
 498 311 498 311 462 284 c 128,-1,29
 426 257 426 257 388 257 c 0,4,5
EndSplineSet
Validated: 5
EndChar

StartChar: uni226E
Encoding: 8814 8814 26
Width: 600
Flags: W
LayerCount: 2
Fore
SplineSet
178 57 m 5,0,-1
 95 57 l 5,1,-1
 416 640 l 5,2,-1
 499 640 l 5,3,-1
 178 57 l 5,0,-1
515 153 m 1,4,-1
 85 306 l 1,5,-1
 85 380 l 1,6,-1
 515 533 l 1,7,-1
 515 462 l 1,8,-1
 305 389 l 1,9,-1
 170 345 l 1,10,-1
 170 341 l 1,11,-1
 305 297 l 1,12,-1
 515 224 l 1,13,-1
 515 153 l 1,4,-1
EndSplineSet
Validated: 5
EndChar

StartChar: uni226F
Encoding: 8815 8815 27
Width: 600
Flags: W
LayerCount: 2
Fore
SplineSet
178 52 m 5,0,-1
 95 52 l 5,1,-1
 416 635 l 5,2,-1
 499 635 l 5,3,-1
 178 52 l 5,0,-1
85 153 m 1,4,-1
 85 224 l 1,5,-1
 295 297 l 1,6,-1
 430 341 l 1,7,-1
 430 345 l 1,8,-1
 295 389 l 1,9,-1
 85 462 l 1,10,-1
 85 533 l 1,11,-1
 515 380 l 1,12,-1
 515 306 l 1,13,-1
 85 153 l 1,4,-1
EndSplineSet
Validated: 5
EndChar

StartChar: uni2270
Encoding: 8816 8816 28
Width: 600
Flags: W
LayerCount: 2
Fore
SplineSet
178 -73 m 1,0,-1
 95 -73 l 1,1,-1
 416 600 l 1,2,-1
 499 600 l 1,3,-1
 178 -73 l 1,0,-1
85 0 m 1,4,-1
 85 62 l 1,5,-1
 515 62 l 1,6,-1
 515 0 l 1,7,-1
 85 0 l 1,4,-1
515 153 m 5,8,-1
 85 306 l 5,9,-1
 85 380 l 5,10,-1
 515 533 l 5,11,-1
 515 462 l 5,12,-1
 305 389 l 5,13,-1
 170 345 l 5,14,-1
 170 341 l 5,15,-1
 305 297 l 5,16,-1
 515 224 l 5,17,-1
 515 153 l 5,8,-1
EndSplineSet
Validated: 5
EndChar

StartChar: uni2271
Encoding: 8817 8817 29
Width: 600
Flags: W
LayerCount: 2
Fore
SplineSet
178 -73 m 1,0,-1
 95 -73 l 1,1,-1
 416 600 l 1,2,-1
 499 600 l 1,3,-1
 178 -73 l 1,0,-1
85 0 m 1,4,-1
 85 62 l 1,5,-1
 515 62 l 1,6,-1
 515 0 l 1,7,-1
 85 0 l 1,4,-1
85 153 m 5,8,-1
 85 224 l 5,9,-1
 295 297 l 5,10,-1
 430 341 l 5,11,-1
 430 345 l 5,12,-1
 295 389 l 5,13,-1
 85 462 l 5,14,-1
 85 533 l 5,15,-1
 515 380 l 5,16,-1
 515 306 l 5,17,-1
 85 153 l 5,8,-1
EndSplineSet
Validated: 5
EndChar

StartChar: uni2272
Encoding: 8818 8818 30
Width: 600
Flags: W
LayerCount: 2
Fore
SplineSet
388.400390625 -5.5751953125 m 0,0,1
 358.25 -5.5751953125 358.25 -5.5751953125 334.6328125 5.962890625 c 128,-1,2
 311.014648438 17.5 311.014648438 17.5 290.412109375 31.7001953125 c 128,-1,3
 269.809570312 45.900390625 269.809570312 45.900390625 250.212890625 57.4375 c 128,-1,4
 230.615234375 68.974609375 230.615234375 68.974609375 209.509765625 68.974609375 c 0,5,6
 186.39453125 68.974609375 186.39453125 68.974609375 165.79296875 53.8876953125 c 128,-1,7
 145.190429688 38.7998046875 145.190429688 38.7998046875 128.10546875 -7.349609375 c 1,8,-1
 74.83984375 13.0625 l 1,9,10
 100.969726562 75.1875 100.969726562 75.1875 137.150390625 99.59375 c 128,-1,11
 173.330078125 124 173.330078125 124 211.51953125 124 c 0,12,13
 241.669921875 124 241.669921875 124 265.287109375 112.462890625 c 128,-1,14
 288.905273438 100.924804688 288.905273438 100.924804688 309.5078125 86.724609375 c 128,-1,15
 330.110351562 72.525390625 330.110351562 72.525390625 349.70703125 60.9873046875 c 128,-1,16
 369.3046875 49.4501953125 369.3046875 49.4501953125 390.41015625 49.4501953125 c 0,17,18
 402.469726562 49.4501953125 402.469726562 49.4501953125 413.022460938 52.556640625 c 128,-1,19
 423.575195312 55.662109375 423.575195312 55.662109375 434.127929688 64.09375 c 128,-1,20
 444.6796875 72.525390625 444.6796875 72.525390625 453.724609375 87.6123046875 c 128,-1,21
 462.76953125 102.700195312 462.76953125 102.700195312 471.815429688 125.775390625 c 1,22,-1
 525.080078125 104.474609375 l 1,23,24
 498.950195312 42.349609375 498.950195312 42.349609375 462.76953125 18.3876953125 c 128,-1,25
 426.58984375 -5.5751953125 426.58984375 -5.5751953125 388.400390625 -5.5751953125 c 0,0,1
515 153 m 5,26,-1
 85 306 l 5,27,-1
 85 380 l 5,28,-1
 515 533 l 5,29,-1
 515 462 l 5,30,-1
 305 389 l 5,31,-1
 170 345 l 5,32,-1
 170 341 l 5,33,-1
 305 297 l 5,34,-1
 515 224 l 5,35,-1
 515 153 l 5,26,-1
EndSplineSet
Validated: 1
EndChar

StartChar: uni2273
Encoding: 8819 8819 31
Width: 600
Flags: W
LayerCount: 2
Fore
SplineSet
388.400390625 -5.5751953125 m 4,0,1
 358.25 -5.5751953125 358.25 -5.5751953125 334.6328125 5.962890625 c 132,-1,2
 311.014648438 17.5 311.014648438 17.5 290.412109375 31.7001953125 c 132,-1,3
 269.809570312 45.900390625 269.809570312 45.900390625 250.212890625 57.4375 c 132,-1,4
 230.615234375 68.974609375 230.615234375 68.974609375 209.509765625 68.974609375 c 4,5,6
 186.39453125 68.974609375 186.39453125 68.974609375 165.79296875 53.8876953125 c 132,-1,7
 145.190429688 38.7998046875 145.190429688 38.7998046875 128.10546875 -7.349609375 c 5,8,-1
 74.83984375 13.0625 l 5,9,10
 100.969726562 75.1875 100.969726562 75.1875 137.150390625 99.59375 c 132,-1,11
 173.330078125 124 173.330078125 124 211.51953125 124 c 4,12,13
 241.669921875 124 241.669921875 124 265.287109375 112.462890625 c 132,-1,14
 288.905273438 100.924804688 288.905273438 100.924804688 309.5078125 86.724609375 c 132,-1,15
 330.110351562 72.525390625 330.110351562 72.525390625 349.70703125 60.9873046875 c 132,-1,16
 369.3046875 49.4501953125 369.3046875 49.4501953125 390.41015625 49.4501953125 c 4,17,18
 402.469726562 49.4501953125 402.469726562 49.4501953125 413.022460938 52.556640625 c 132,-1,19
 423.575195312 55.662109375 423.575195312 55.662109375 434.127929688 64.09375 c 132,-1,20
 444.6796875 72.525390625 444.6796875 72.525390625 453.724609375 87.6123046875 c 132,-1,21
 462.76953125 102.700195312 462.76953125 102.700195312 471.815429688 125.775390625 c 5,22,-1
 525.080078125 104.474609375 l 5,23,24
 498.950195312 42.349609375 498.950195312 42.349609375 462.76953125 18.3876953125 c 132,-1,25
 426.58984375 -5.5751953125 426.58984375 -5.5751953125 388.400390625 -5.5751953125 c 4,0,1
85 153 m 1,26,-1
 85 224 l 1,27,-1
 295 297 l 1,28,-1
 430 341 l 1,29,-1
 430 345 l 1,30,-1
 295 389 l 1,31,-1
 85 462 l 1,32,-1
 85 533 l 1,33,-1
 515 380 l 1,34,-1
 515 306 l 1,35,-1
 85 153 l 1,26,-1
EndSplineSet
Validated: 1
EndChar

StartChar: uni2274
Encoding: 8820 8820 32
Width: 600
Flags: W
LayerCount: 2
Fore
SplineSet
178 -73 m 5,0,-1
 100 -73 l 5,1,-1
 421 600 l 5,2,-1
 499 600 l 5,3,-1
 178 -73 l 5,0,-1
388.400390625 -5.5751953125 m 0,4,5
 358.25 -5.5751953125 358.25 -5.5751953125 334.6328125 5.962890625 c 128,-1,6
 311.014648438 17.5 311.014648438 17.5 290.412109375 31.7001953125 c 128,-1,7
 269.809570312 45.900390625 269.809570312 45.900390625 250.212890625 57.4375 c 128,-1,8
 230.615234375 68.974609375 230.615234375 68.974609375 209.509765625 68.974609375 c 0,9,10
 186.39453125 68.974609375 186.39453125 68.974609375 165.79296875 53.8876953125 c 128,-1,11
 145.190429688 38.7998046875 145.190429688 38.7998046875 128.10546875 -7.349609375 c 1,12,-1
 74.83984375 13.0625 l 1,13,14
 100.969726562 75.1875 100.969726562 75.1875 137.150390625 99.59375 c 128,-1,15
 173.330078125 124 173.330078125 124 211.51953125 124 c 0,16,17
 241.669921875 124 241.669921875 124 265.287109375 112.462890625 c 128,-1,18
 288.905273438 100.924804688 288.905273438 100.924804688 309.5078125 86.724609375 c 128,-1,19
 330.110351562 72.525390625 330.110351562 72.525390625 349.70703125 60.9873046875 c 128,-1,20
 369.3046875 49.4501953125 369.3046875 49.4501953125 390.41015625 49.4501953125 c 0,21,22
 402.469726562 49.4501953125 402.469726562 49.4501953125 413.022460938 52.556640625 c 128,-1,23
 423.575195312 55.662109375 423.575195312 55.662109375 434.127929688 64.09375 c 128,-1,24
 444.6796875 72.525390625 444.6796875 72.525390625 453.724609375 87.6123046875 c 128,-1,25
 462.76953125 102.700195312 462.76953125 102.700195312 471.815429688 125.775390625 c 1,26,-1
 525.080078125 104.474609375 l 1,27,28
 498.950195312 42.349609375 498.950195312 42.349609375 462.76953125 18.3876953125 c 128,-1,29
 426.58984375 -5.5751953125 426.58984375 -5.5751953125 388.400390625 -5.5751953125 c 0,4,5
515 153 m 1,30,-1
 85 306 l 1,31,-1
 85 380 l 1,32,-1
 515 533 l 1,33,-1
 515 462 l 1,34,-1
 305 389 l 1,35,-1
 170 345 l 1,36,-1
 170 341 l 1,37,-1
 305 297 l 1,38,-1
 515 224 l 1,39,-1
 515 153 l 1,30,-1
EndSplineSet
Validated: 5
EndChar

StartChar: uni2275
Encoding: 8821 8821 33
Width: 600
Flags: W
LayerCount: 2
Fore
SplineSet
178 -73 m 1,0,-1
 100 -73 l 5,1,-1
 421 600 l 5,2,-1
 499 600 l 1,3,-1
 178 -73 l 1,0,-1
388.400390625 -5.5751953125 m 0,4,5
 358.25 -5.5751953125 358.25 -5.5751953125 334.6328125 5.962890625 c 128,-1,6
 311.014648438 17.5 311.014648438 17.5 290.412109375 31.7001953125 c 128,-1,7
 269.809570312 45.900390625 269.809570312 45.900390625 250.212890625 57.4375 c 128,-1,8
 230.615234375 68.974609375 230.615234375 68.974609375 209.509765625 68.974609375 c 0,9,10
 186.39453125 68.974609375 186.39453125 68.974609375 165.79296875 53.8876953125 c 128,-1,11
 145.190429688 38.7998046875 145.190429688 38.7998046875 128.10546875 -7.349609375 c 1,12,-1
 74.83984375 13.0625 l 1,13,14
 100.969726562 75.1875 100.969726562 75.1875 137.150390625 99.59375 c 128,-1,15
 173.330078125 124 173.330078125 124 211.51953125 124 c 0,16,17
 241.669921875 124 241.669921875 124 265.287109375 112.462890625 c 128,-1,18
 288.905273438 100.924804688 288.905273438 100.924804688 309.5078125 86.724609375 c 128,-1,19
 330.110351562 72.525390625 330.110351562 72.525390625 349.70703125 60.9873046875 c 128,-1,20
 369.3046875 49.4501953125 369.3046875 49.4501953125 390.41015625 49.4501953125 c 0,21,22
 402.469726562 49.4501953125 402.469726562 49.4501953125 413.022460938 52.556640625 c 128,-1,23
 423.575195312 55.662109375 423.575195312 55.662109375 434.127929688 64.09375 c 128,-1,24
 444.6796875 72.525390625 444.6796875 72.525390625 453.724609375 87.6123046875 c 128,-1,25
 462.76953125 102.700195312 462.76953125 102.700195312 471.815429688 125.775390625 c 1,26,-1
 525.080078125 104.474609375 l 1,27,28
 498.950195312 42.349609375 498.950195312 42.349609375 462.76953125 18.3876953125 c 128,-1,29
 426.58984375 -5.5751953125 426.58984375 -5.5751953125 388.400390625 -5.5751953125 c 0,4,5
85 153 m 1,30,-1
 85 224 l 1,31,-1
 295 297 l 1,32,-1
 430 341 l 1,33,-1
 430 345 l 1,34,-1
 295 389 l 1,35,-1
 85 462 l 1,36,-1
 85 533 l 1,37,-1
 515 380 l 1,38,-1
 515 306 l 1,39,-1
 85 153 l 1,30,-1
EndSplineSet
Validated: 5
EndChar

StartChar: uni228F
Encoding: 8847 8847 34
Width: 600
Flags: W
LayerCount: 2
Fore
SplineSet
559 100 m 5,0,-1
 45 100 l 21,1,2
 45 566 l 13,3,-1
 559 566 l 5,4,-1
 559 493 l 5,5,-1
 118 493 l 29,6,7
 119 173 l 13,8,-1
 559 173 l 5,9,-1
 559 100 l 5,0,-1
EndSplineSet
Validated: 1
EndChar

StartChar: uni2291
Encoding: 8849 8849 35
Width: 600
Flags: W
LayerCount: 2
Fore
SplineSet
55 0 m 1,0,-1
 55 62 l 1,1,-1
 559 62 l 1,2,-1
 559 0 l 1,3,-1
 55 0 l 1,0,-1
559 132 m 1,4,-1
 45 132 l 17,5,-1
 45 531 l 9,6,-1
 559 531 l 1,7,-1
 559 458 l 1,8,-1
 118 458 l 25,9,-1
 119 205 l 9,10,-1
 559 205 l 1,11,-1
 559 132 l 1,4,-1
EndSplineSet
Validated: 1
EndChar

StartChar: logicaland
Encoding: 8743 8743 36
Width: 600
Flags: W
LayerCount: 2
Fore
SplineSet
256 594 m 1,0,-1
 348 594 l 1,1,-1
 549 108 l 1,2,-1
 470 108 l 1,3,-1
 358 384 l 2,4,5
 343 420 343 420 330 456 c 0,6,7
 318 492 318 492 305 527 c 1,8,9
 301 527 l 1,10,11
 288 492 288 492 274 456 c 4,12,13
 264 430 264 430 246 384 c 2,14,-1
 134 108 l 1,15,-1
 51 108 l 1,16,-1
 256 594 l 1,0,-1
EndSplineSet
Validated: 1
EndChar

StartChar: logicalor
Encoding: 8744 8744 37
Width: 600
Flags: W
LayerCount: 2
Fore
SplineSet
256 90 m 5,0,-1
 51 576 l 5,1,-1
 134 576 l 5,2,-1
 246 300 l 6,3,4
 265 253 265 253 274.5 227.5 c 4,5,6
 288 192 288 192 301 157 c 5,7,-1
 305 157 l 5,8,9
 318 192 318 192 330.5 227.5 c 4,10,11
 343.095057034 263.269961977 343.095057034 263.269961977 358 300 c 6,12,-1
 470 576 l 5,13,-1
 549 576 l 5,14,-1
 348 90 l 5,15,-1
 256 90 l 5,0,-1
EndSplineSet
Validated: 1
EndChar

StartChar: uni22BB
Encoding: 8891 8891 38
Width: 600
Flags: W
LayerCount: 2
Fore
SplineSet
55 173 m 5,0,-1
 545 173 l 5,1,-1
 545 111 l 5,2,-1
 55 111 l 5,3,-1
 55 173 l 5,0,-1
256 234 m 5,4,-1
 51 620 l 5,5,-1
 134 620 l 5,6,-1
 305 311 l 5,7,-1
 470 620 l 5,8,-1
 549 620 l 5,9,-1
 348 234 l 5,10,-1
 256 234 l 5,4,-1
EndSplineSet
Validated: 1
EndChar

StartChar: uni22BC
Encoding: 8892 8892 39
Width: 600
Flags: W
LayerCount: 2
Fore
SplineSet
55 559 m 1,0,-1
 55 621 l 1,1,-1
 545 621 l 1,2,-1
 545 559 l 1,3,-1
 55 559 l 1,0,-1
256 498 m 5,4,-1
 348 498 l 5,5,-1
 549 112 l 5,6,-1
 470 112 l 5,7,-1
 305 421 l 5,8,-1
 134 112 l 5,9,-1
 51 112 l 5,10,-1
 256 498 l 5,4,-1
EndSplineSet
Validated: 1
EndChar

StartChar: uni22BD
Encoding: 8893 8893 40
Width: 600
Flags: W
LayerCount: 2
Fore
SplineSet
55 559 m 5,0,-1
 55 621 l 5,1,-1
 545 621 l 5,2,-1
 545 559 l 5,3,-1
 55 559 l 5,0,-1
256 90 m 5,4,-1
 51 476 l 5,5,-1
 134 476 l 5,6,-1
 305 167 l 5,7,-1
 470 476 l 5,8,-1
 549 476 l 5,9,-1
 348 90 l 5,10,-1
 256 90 l 5,4,-1
EndSplineSet
Validated: 1
EndChar

StartChar: uni22E2
Encoding: 8930 8930 41
Width: 600
Flags: W
LayerCount: 2
Fore
SplineSet
198 -53 m 5,0,-1
 115 -53 l 5,1,-1
 436 620 l 5,2,-1
 519 620 l 5,3,-1
 198 -53 l 5,0,-1
55 0 m 1,4,-1
 55 62 l 1,5,-1
 559 62 l 1,6,-1
 559 0 l 1,7,-1
 55 0 l 1,4,-1
559 132 m 1,8,-1
 45 132 l 1,9,-1
 45 531 l 1,10,-1
 559 531 l 1,11,-1
 559 458 l 1,12,-1
 118 458 l 1,13,-1
 119 205 l 1,14,-1
 559 205 l 1,15,-1
 559 132 l 1,8,-1
EndSplineSet
Validated: 5
EndChar

StartChar: uni22E3
Encoding: 8931 8931 42
Width: 600
Flags: W
LayerCount: 2
Fore
SplineSet
198 -53 m 1,0,-1
 115 -53 l 1,1,-1
 436 620 l 1,2,-1
 519 620 l 1,3,-1
 198 -53 l 1,0,-1
549 0 m 1,4,-1
 45 0 l 1,5,-1
 45 62 l 1,6,-1
 549 62 l 1,7,-1
 549 0 l 1,4,-1
45 132 m 1,8,-1
 45 205 l 1,9,-1
 485 205 l 1,10,-1
 486 458 l 1,11,-1
 45 458 l 1,12,-1
 45 531 l 1,13,-1
 559 531 l 1,14,-1
 559 132 l 1,15,-1
 45 132 l 1,8,-1
EndSplineSet
Validated: 5
EndChar

StartChar: uni2A3F
Encoding: 10815 10815 43
Width: 600
Flags: W
LayerCount: 2
Fore
SplineSet
96 530 m 1,0,-1
 161 530 l 1,1,-1
 161 141 l 1,2,-1
 439 141 l 1,3,-1
 439 530 l 5,4,-1
 504 530 l 1,5,-1
 504 76 l 25,6,-1
 96 76 l 25,7,-1
 96 530 l 1,0,-1
EndSplineSet
Validated: 1
EndChar

StartChar: emptyset
Encoding: 8709 8709 44
Width: 600
Flags: W
LayerCount: 2
Fore
SplineSet
367 540 m 0,0,1
 328 549 328 549 295 549 c 0,2,3
 275 549 275 549 257 546 c 0,4,5
 156 528 156 528 112 440 c 0,6,7
 85 387 85 387 85 334 c 0,8,9
 85 238 85 238 140 183 c 1,10,-1
 413 518 l 1,11,12
 389 535 389 535 367 540 c 0,0,1
251 622 m 0,13,14
 272 625 272 625 294 625 c 0,15,16
 352 625 352 625 408 603 c 0,17,18
 436 592 436 592 461 577 c 1,19,-1
 536 669 l 1,20,-1
 589 629 l 1,21,-1
 513 536 l 1,22,23
 525 524 525 524 535 509 c 0,24,25
 593 432 593 432 593 330 c 0,26,27
 593 234 593 234 529 151 c 0,28,29
 477 83 477 83 405 58 c 0,30,31
 350 38 350 38 295 38 c 0,32,33
 275 38 275 38 254 41 c 0,34,35
 191 49 191 49 141 81 c 1,36,-1
 60 -18 l 1,37,-1
 12 25 l 1,38,-1
 92 123 l 1,39,40
 46 172 46 172 23 239 c 0,41,42
 6 289 6 289 6 330 c 0,43,44
 6 479 6 479 124 567 c 0,45,46
 186 613 186 613 251 622 c 0,13,14
192 143 m 1,47,48
 211 132 211 132 231 125 c 0,49,50
 250 119 250 119 300 119 c 0,51,52
 348 119 348 119 367 125 c 0,53,54
 413 142 413 142 453 178 c 0,55,56
 512 234 512 234 512 334 c 0,57,58
 512 422 512 422 464 476 c 1,59,-1
 192 143 l 1,47,48
EndSplineSet
Validated: 1
EndChar

StartChar: uni226A
Encoding: 8810 8810 45
Width: 600
Flags: W
LayerCount: 2
Fore
SplineSet
581.5 48 m 1,0,-1
 208.5 301 l 1,1,-1
 208.5 363 l 1,2,-1
 581.5 616 l 1,3,-1
 581.5 537 l 1,4,-1
 280.5 334 l 1,5,-1
 280.5 330 l 1,6,-1
 581.5 127 l 1,7,-1
 581.5 48 l 1,0,-1
391.5 48 m 5,8,-1
 18.5 301 l 5,9,-1
 18.5 363 l 5,10,-1
 391.5 616 l 5,11,-1
 391.5 537 l 5,12,-1
 90.5 334 l 5,13,-1
 90.5 330 l 5,14,-1
 391.5 127 l 5,15,-1
 391.5 48 l 5,8,-1
EndSplineSet
Validated: 1
EndChar

StartChar: uni22D8
Encoding: 8920 8920 46
Width: 600
Flags: W
LayerCount: 2
Fore
SplineSet
585.5 48 m 5,0,-1
 292.5 301 l 5,1,-1
 292.5 363 l 5,2,-1
 585.5 616 l 5,3,-1
 585.5 527 l 5,4,-1
 364.5 334 l 5,5,-1
 364.5 330 l 5,6,-1
 585.5 140 l 5,7,-1
 585.5 48 l 5,0,-1
435.5 48 m 5,8,-1
 142.5 301 l 5,9,-1
 142.5 363 l 5,10,-1
 435.5 616 l 5,11,-1
 435.5 527 l 5,12,-1
 214.5 334 l 5,13,-1
 214.5 330 l 5,14,-1
 435.5 140 l 5,15,-1
 435.5 48 l 5,8,-1
285.5 48 m 5,16,-1
 -7.5 301 l 5,17,-1
 -7.5 363 l 5,18,-1
 285.5 616 l 5,19,-1
 285.5 527 l 5,20,-1
 64.5 334 l 5,21,-1
 64.5 330 l 5,22,-1
 285.5 140 l 5,23,-1
 285.5 48 l 5,16,-1
EndSplineSet
Validated: 1
EndChar

StartChar: uni22DA
Encoding: 8922 8922 47
Width: 600
Flags: W
LayerCount: 2
Fore
SplineSet
85 -12 m 1,0,-1
 85 45 l 1,1,-1
 297 103 l 1,2,-1
 434 138 l 1,3,-1
 434 142 l 1,4,-1
 297 177 l 1,5,-1
 85 235 l 1,6,-1
 85 292 l 1,7,-1
 520 170 l 1,8,-1
 520 110 l 1,9,-1
 85 -12 l 1,0,-1
85 317 m 1,10,-1
 85 372 l 1,11,-1
 515 372 l 1,12,-1
 515 317 l 1,13,-1
 85 317 l 1,10,-1
517 396 m 1,14,-1
 82 518 l 1,15,-1
 82 578 l 1,16,-1
 517 700 l 1,17,-1
 517 643 l 1,18,-1
 305 585 l 1,19,-1
 168 550 l 1,20,-1
 168 546 l 1,21,-1
 305 511 l 1,22,-1
 517 453 l 1,23,-1
 517 396 l 1,14,-1
EndSplineSet
Validated: 1
EndChar

StartChar: uni2276
Encoding: 8822 8822 48
Width: 600
Flags: W
LayerCount: 2
Fore
SplineSet
88 -37 m 5,0,-1
 88 34 l 5,1,-1
 298 107 l 5,2,-1
 433 151 l 5,3,-1
 433 155 l 5,4,-1
 298 199 l 5,5,-1
 88 272 l 5,6,-1
 88 343 l 5,7,-1
 518 190 l 5,8,-1
 518 116 l 5,9,-1
 88 -37 l 5,0,-1
515 233 m 5,10,-1
 85 386 l 5,11,-1
 85 460 l 5,12,-1
 515 613 l 5,13,-1
 515 542 l 5,14,-1
 305 469 l 5,15,-1
 170 425 l 5,16,-1
 170 421 l 5,17,-1
 305 377 l 5,18,-1
 515 304 l 5,19,-1
 515 233 l 5,10,-1
EndSplineSet
Validated: 1
EndChar

StartChar: uni2278
Encoding: 8824 8824 49
Width: 600
Flags: W
LayerCount: 2
Fore
SplineSet
208 -83 m 5,0,-1
 130 -83 l 5,1,-1
 410 655 l 5,2,-1
 488 655 l 5,3,-1
 208 -83 l 5,0,-1
88 -37 m 1,4,-1
 88 34 l 1,5,-1
 298 107 l 1,6,-1
 433 151 l 1,7,-1
 433 155 l 1,8,-1
 298 199 l 1,9,-1
 88 272 l 1,10,-1
 88 343 l 1,11,-1
 518 190 l 1,12,-1
 518 116 l 1,13,-1
 88 -37 l 1,4,-1
515 233 m 1,14,-1
 85 386 l 1,15,-1
 85 460 l 1,16,-1
 515 613 l 1,17,-1
 515 542 l 1,18,-1
 305 469 l 1,19,-1
 170 425 l 1,20,-1
 170 421 l 1,21,-1
 305 377 l 1,22,-1
 515 304 l 1,23,-1
 515 233 l 1,14,-1
EndSplineSet
Validated: 5
EndChar

StartChar: uni2279
Encoding: 8825 8825 50
Width: 600
Flags: W
LayerCount: 2
Fore
SplineSet
208 -63 m 5,0,-1
 130 -63 l 5,1,-1
 410 635 l 1,2,-1
 488 635 l 1,3,-1
 208 -63 l 5,0,-1
515 -37 m 1,4,-1
 85 116 l 1,5,-1
 85 190 l 1,6,-1
 515 343 l 1,7,-1
 515 272 l 1,8,-1
 305 199 l 1,9,-1
 170 155 l 1,10,-1
 170 151 l 1,11,-1
 305 107 l 1,12,-1
 515 34 l 1,13,-1
 515 -37 l 1,4,-1
88 233 m 1,14,-1
 88 304 l 1,15,-1
 298 377 l 1,16,-1
 433 421 l 1,17,-1
 433 425 l 1,18,-1
 298 469 l 1,19,-1
 88 542 l 1,20,-1
 88 613 l 1,21,-1
 518 460 l 1,22,-1
 518 386 l 1,23,-1
 88 233 l 1,14,-1
EndSplineSet
Validated: 5
EndChar

StartChar: uni2262
Encoding: 8802 8802 51
Width: 600
Flags: W
LayerCount: 2
Fore
SplineSet
208 -33 m 1,0,-1
 130 -33 l 1,1,-1
 410 690 l 5,2,-1
 488 690 l 5,3,-1
 208 -33 l 1,0,-1
85 85 m 1,4,-1
 85 147 l 1,5,-1
 515 147 l 1,6,-1
 515 85 l 1,7,-1
 85 85 l 1,4,-1
85 299 m 1,8,-1
 85 361 l 1,9,-1
 515 361 l 1,10,-1
 515 299 l 1,11,-1
 85 299 l 1,8,-1
85 514 m 1,12,-1
 85 576 l 1,13,-1
 515 576 l 1,14,-1
 515 514 l 1,15,-1
 85 514 l 1,12,-1
EndSplineSet
Validated: 2053
EndChar

StartChar: uni29C7
Encoding: 10695 10695 52
Width: 600
Flags: W
LayerCount: 2
Fore
SplineSet
301 445 m 0,0,1
 328 445 328 445 351.5 435 c 128,-1,2
 375 425 375 425 394 406 c 0,3,4
 413 388 413 388 422 364.5 c 128,-1,5
 431 341 431 341 431 313 c 0,6,7
 431 259 431 259 393 222 c 128,-1,8
 355 185 355 185 300 185 c 256,9,10
 245 185 245 185 208 221.5 c 128,-1,11
 171 258 171 258 171 313 c 256,12,13
 171 368 171 368 208.5 406.5 c 128,-1,14
 246 445 246 445 301 445 c 0,0,1
301 379 m 128,-1,16
 274 379 274 379 255 360 c 128,-1,17
 236 341 236 341 236 314 c 128,-1,18
 236 287 236 287 254.5 268.5 c 128,-1,19
 273 250 273 250 300 250 c 256,20,21
 327 250 327 250 346.5 268.5 c 128,-1,22
 366 287 366 287 366 314 c 256,23,24
 366 341 366 341 347 360 c 128,-1,15
 328 379 328 379 301 379 c 128,-1,16
494 120 m 5,25,-1
 494 508 l 5,26,-1
 107 508 l 5,27,-1
 107 120 l 5,28,-1
 494 120 l 5,25,-1
39 576 m 5,29,-1
 564 576 l 5,30,-1
 564 51 l 5,31,-1
 39 51 l 5,32,-1
 39 576 l 5,29,-1
EndSplineSet
Validated: 2049
EndChar

StartChar: uni29C6
Encoding: 10694 10694 53
Width: 600
Flags: W
LayerCount: 2
Fore
SplineSet
475.973632812 382.033203125 m 5,0,-1
 335.650390625 313.700195312 l 5,1,-1
 475.973632812 244.991210938 l 5,2,-1
 444.427734375 197.946289062 l 5,3,-1
 322.418945312 279.680664062 l 5,4,-1
 327.418945312 137.174804688 l 5,5,-1
 273.950195312 137.174804688 l 5,6,-1
 278.950195312 279.680664062 l 5,7,-1
 156.942382812 197.946289062 l 5,8,-1
 125.395507812 244.991210938 l 5,9,-1
 265.719726562 313.700195312 l 5,10,-1
 125.395507812 382.033203125 l 5,11,-1
 156.942382812 429.454101562 l 5,12,-1
 278.950195312 347.720703125 l 5,13,-1
 273.950195312 490.2265625 l 5,14,-1
 327.418945312 490.2265625 l 5,15,-1
 322.418945312 347.720703125 l 5,16,-1
 444.427734375 429.454101562 l 5,17,-1
 475.973632812 382.033203125 l 5,0,-1
39 576 m 1,18,-1
 564 576 l 1,19,-1
 564 51 l 1,20,-1
 39 51 l 1,21,-1
 39 576 l 1,18,-1
494 120 m 1,22,-1
 494 508 l 1,23,-1
 107 508 l 1,24,-1
 107 120 l 1,25,-1
 494 120 l 1,22,-1
EndSplineSet
Validated: 1
EndChar

StartChar: uni29C4
Encoding: 10692 10692 54
Width: 600
Flags: W
LayerCount: 2
Fore
SplineSet
396 457 m 5,0,-1
 445 409 l 5,1,-1
 207 170 l 5,2,-1
 158 219 l 5,3,-1
 396 457 l 5,0,-1
494 120 m 1,4,-1
 494 508 l 1,5,-1
 107 508 l 1,6,-1
 107 120 l 1,7,-1
 494 120 l 1,4,-1
39 576 m 1,8,-1
 564 576 l 1,9,-1
 564 51 l 1,10,-1
 39 51 l 1,11,-1
 39 576 l 1,8,-1
EndSplineSet
Validated: 1
EndChar

StartChar: uni22A4
Encoding: 8868 8868 55
Width: 600
Flags: W
LayerCount: 2
Fore
SplineSet
258 0 m 1,0,-1
 258 606 l 1,1,-1
 12 606 l 1,2,-1
 12 676 l 1,3,-1
 588 676 l 1,4,-1
 588 606 l 1,5,-1
 342 606 l 1,6,-1
 342 0 l 1,7,-1
 258 0 l 1,0,-1
EndSplineSet
Validated: 1
EndChar

StartChar: uni229B
Encoding: 8859 8859 56
Width: 600
Flags: W
LayerCount: 2
Fore
SplineSet
301 577 m 128,-1,1
 355 577 355 577 401.5 557.5 c 128,-1,2
 448 538 448 538 486 500 c 0,3,4
 525 461 525 461 544 415 c 256,5,6
 563 369 563 369 563 313 c 0,7,8
 563 260 563 260 544 214 c 256,9,10
 525 168 525 168 486 129 c 0,11,12
 447 91 447 91 401 71.5 c 128,-1,13
 355 52 355 52 301 52 c 128,-1,14
 247 52 247 52 200.5 71.5 c 128,-1,15
 154 91 154 91 116 129 c 0,16,17
 77 168 77 168 58 214 c 256,18,19
 39 260 39 260 39 313 c 0,20,21
 39 368 39 368 58 415 c 0,22,23
 77 461 77 461 116 500 c 256,24,25
 155 539 155 539 201 558 c 128,-1,0
 247 577 247 577 301 577 c 128,-1,1
301 508 m 128,-1,27
 261 508 261 508 227 494 c 0,28,29
 193 479 193 479 165 451 c 0,30,31
 136 422 136 422 122 388 c 128,-1,32
 108 354 108 354 108 313 c 0,33,34
 108 274 108 274 122 240 c 128,-1,35
 136 206 136 206 165 177 c 0,36,37
 193 149 193 149 227 135 c 0,38,39
 262 120 262 120 301.5 120 c 128,-1,40
 341 120 341 120 375 135 c 0,41,42
 410 150 410 150 438 177 c 0,43,44
 467 206 467 206 480.5 240 c 128,-1,45
 494 274 494 274 494 313 c 0,46,47
 494 354 494 354 480 388 c 128,-1,48
 466 422 466 422 438 451 c 0,49,50
 410 479 410 479 375 494 c 0,51,26
 341 508 341 508 301 508 c 128,-1,27
475.973632812 382.033203125 m 5,52,-1
 335.650390625 313.700195312 l 5,53,-1
 475.973632812 244.991210938 l 5,54,-1
 444.427734375 197.946289062 l 5,55,-1
 322.418945312 279.680664062 l 5,56,-1
 327.418945312 137.174804688 l 5,57,-1
 273.950195312 137.174804688 l 5,58,-1
 278.950195312 279.680664062 l 5,59,-1
 156.942382812 197.946289062 l 5,60,-1
 125.395507812 244.991210938 l 5,61,-1
 265.719726562 313.700195312 l 5,62,-1
 125.395507812 382.033203125 l 5,63,-1
 156.942382812 429.454101562 l 5,64,-1
 278.950195312 347.720703125 l 5,65,-1
 273.950195312 490.2265625 l 5,66,-1
 327.418945312 490.2265625 l 5,67,-1
 322.418945312 347.720703125 l 5,68,-1
 444.427734375 429.454101562 l 5,69,-1
 475.973632812 382.033203125 l 5,52,-1
EndSplineSet
Validated: 1
EndChar

StartChar: uni29FA
Encoding: 10746 10746 57
Width: 600
Flags: W
LayerCount: 2
Fore
SplineSet
65 299 m 1,0,-1
 65 361 l 1,1,-1
 167 361 l 1,2,-1
 167 556 l 1,3,-1
 233 556 l 1,4,-1
 233 361 l 1,5,-1
 367 361 l 1,6,-1
 367 556 l 1,7,-1
 433 556 l 1,8,-1
 433 361 l 1,9,-1
 535 361 l 1,10,-1
 535 299 l 1,11,-1
 433 299 l 1,12,-1
 433 104 l 1,13,-1
 367 104 l 1,14,-1
 367 299 l 1,15,-1
 233 299 l 1,16,-1
 233 104 l 1,17,-1
 167 104 l 1,18,-1
 167 299 l 1,19,-1
 65 299 l 1,0,-1
EndSplineSet
Validated: 1
EndChar

StartChar: uni225F
Encoding: 8799 8799 58
Width: 600
Flags: W
LayerCount: 2
Fore
SplineSet
271 433 m 1,0,1
 270 441 270 441 270 448 c 0,2,3
 270 460 270 460 273 471 c 0,4,5
 278 487 278 487 288.5 501 c 128,-1,6
 299 515 299 515 312 526.5 c 128,-1,7
 325 538 325 538 336.5 549.5 c 128,-1,8
 348 561 348 561 355.5 573.5 c 128,-1,9
 363 586 363 586 363 601 c 0,10,11
 363 626 363 626 347 642 c 128,-1,12
 331 658 331 658 298 658 c 0,13,14
 276 658 276 658 256.5 649 c 128,-1,15
 237 640 237 640 222 624 c 1,16,-1
 193 651 l 1,17,18
 213 672 213 672 240 685.5 c 128,-1,19
 267 699 267 699 301 699 c 0,20,21
 326 699 326 699 346 692.5 c 128,-1,22
 366 686 366 686 380.5 673.5 c 128,-1,23
 395 661 395 661 403 644.5 c 128,-1,24
 411 628 411 628 411 607 c 0,25,26
 411 587 411 587 403 571.5 c 128,-1,27
 395 556 395 556 383.5 543 c 128,-1,28
 372 530 372 530 358.5 518.5 c 128,-1,29
 345 507 345 507 334.5 494 c 0,30,31
 324 480 324 480 318 466 c 0,32,33
 314 456 314 456 313 445 c 0,34,35
 313 439 313 439 314 433 c 1,36,-1
 271 433 l 1,0,1
85 133 m 1,37,-1
 85 195 l 1,38,-1
 515 195 l 1,39,-1
 515 133 l 1,40,-1
 85 133 l 1,37,-1
85 306 m 1,41,-1
 85 368 l 1,42,-1
 515 368 l 1,43,-1
 515 306 l 1,44,-1
 85 306 l 1,41,-1
EndSplineSet
Validated: 1
EndChar

StartChar: uni225D
Encoding: 8797 8797 59
Width: 600
Flags: W
LayerCount: 2
Fore
SplineSet
470.375 440.375 m 1,0,-1
 470.375 597.5 l 1,1,-1
 418.25 597.5 l 1,2,-1
 418.25 620.75 l 1,3,-1
 470.375 622.625 l 1,4,-1
 470.375 638 l 2,5,6
 470.375 671.375 470.375 671.375 488.1875 691.625 c 128,-1,7
 506 711.875 506 711.875 543.875 711.875 c 0,8,9
 570.875 711.875 570.875 711.875 596.375 701.375 c 1,10,-1
 589.25 678.125 l 1,11,12
 578 683.375 578 683.375 568.4375 685.0625 c 128,-1,13
 558.875 686.75 558.875 686.75 546.875 686.75 c 0,14,15
 522.125 686.75 522.125 686.75 511.4375 674.1875 c 128,-1,16
 500.75 661.625 500.75 661.625 500.75 639.125 c 2,17,-1
 500.75 622.625 l 1,18,-1
 577.25 622.625 l 1,19,-1
 577.25 597.5 l 1,20,-1
 500.75 597.5 l 1,21,-1
 500.75 440.375 l 1,22,-1
 470.375 440.375 l 1,0,-1
327.125 435.875 m 0,23,24
 306.5 435.875 306.5 435.875 288.6875 442.25 c 128,-1,25
 270.875 448.625 270.875 448.625 257.5625 461 c 128,-1,26
 244.25 473.375 244.25 473.375 236.5625 491.1875 c 128,-1,27
 228.875 509 228.875 509 228.875 531.875 c 0,28,29
 228.875 554 228.875 554 236.5625 571.625 c 128,-1,30
 244.25 589.25 244.25 589.25 257.1875 601.625 c 128,-1,31
 270.125 614 270.125 614 286.8125 620.5625 c 128,-1,32
 303.5 627.125 303.5 627.125 321.875 627.125 c 0,33,34
 341.375 627.125 341.375 627.125 356.9375 620.9375 c 128,-1,35
 372.5 614.75 372.5 614.75 383.1875 603.5 c 128,-1,36
 393.875 592.25 393.875 592.25 399.5 576.5 c 128,-1,37
 405.125 560.75 405.125 560.75 405.125 541.625 c 0,38,39
 405.125 536.375 405.125 536.375 404.75 531.5 c 128,-1,40
 404.375 526.625 404.375 526.625 403.625 522.875 c 1,41,-1
 260 522.875 l 1,42,43
 263 491.75 263 491.75 282.6875 476.1875 c 128,-1,44
 302.375 460.625 302.375 460.625 330.875 460.625 c 0,45,46
 347.375 460.625 347.375 460.625 360.6875 465.3125 c 128,-1,47
 374 470 374 470 386.375 477.875 c 1,48,-1
 397.625 457.625 l 1,49,50
 384.125 448.625 384.125 448.625 366.6875 442.25 c 128,-1,51
 349.25 435.875 349.25 435.875 327.125 435.875 c 0,23,24
322.625 602.75 m 0,52,53
 311.375 602.75 311.375 602.75 301.0625 599 c 128,-1,54
 290.75 595.25 290.75 595.25 282.5 588.3125 c 128,-1,55
 274.25 581.375 274.25 581.375 268.625 570.875 c 128,-1,56
 263 560.375 263 560.375 260.75 546.875 c 1,57,-1
 377 546.875 l 1,58,59
 375.125 575 375.125 575 360.6875 588.875 c 128,-1,60
 346.25 602.75 346.25 602.75 322.625 602.75 c 0,52,53
113.75 435.875 m 0,61,62
 95.75 435.875 95.75 435.875 81.3125 442.25 c 128,-1,63
 66.875 448.625 66.875 448.625 56.375 460.8125 c 128,-1,64
 45.875 473 45.875 473 40.25 490.625 c 128,-1,65
 34.625 508.25 34.625 508.25 34.625 531.125 c 0,66,67
 34.625 553.25 34.625 553.25 41.5625 571.0625 c 128,-1,68
 48.5 588.875 48.5 588.875 59.9375 601.25 c 128,-1,69
 71.375 613.625 71.375 613.625 86.375 620.375 c 128,-1,70
 101.375 627.125 101.375 627.125 117.5 627.125 c 0,71,72
 134 627.125 134 627.125 146.9375 620.9375 c 128,-1,73
 159.875 614.75 159.875 614.75 171.875 603.5 c 1,74,-1
 173 603.5 l 1,75,-1
 171.5 637.25 l 1,76,-1
 171.5 670.25 l 0,77,-1
 171.5 707.375 l 1,78,-1
 202.25 707.375 l 1,79,-1
 202.25 440.375 l 1,80,-1
 176.75 440.375 l 1,81,-1
 174.125 464.375 l 1,82,-1
 173 464.375 l 1,83,84
 161.75 452.75 161.75 452.75 146.1875 444.3125 c 128,-1,85
 130.625 435.875 130.625 435.875 113.75 435.875 c 0,61,62
120.125 461.75 m 0,86,87
 147.125 461.75 147.125 461.75 171.5 489.125 c 1,88,-1
 171.5 579.875 l 1,89,90
 159.125 591.5 159.125 591.5 147.3125 596.375 c 128,-1,91
 135.5 601.25 135.5 601.25 123.5 601.25 c 256,92,93
 111.5 601.25 111.5 601.25 101.1875 596.1875 c 128,-1,94
 90.875 591.125 90.875 591.125 83.1875 581.9375 c 128,-1,95
 75.5 572.75 75.5 572.75 71 560 c 128,-1,96
 66.5 547.25 66.5 547.25 66.5 531.5 c 0,97,98
 66.5 498.5 66.5 498.5 80.5625 480.125 c 128,-1,99
 94.625 461.75 94.625 461.75 120.125 461.75 c 0,86,87
45 133 m 1,100,-1
 45 195 l 1,101,-1
 555 195 l 1,102,-1
 555 133 l 1,103,-1
 45 133 l 1,100,-1
45 306 m 1,104,-1
 45 368 l 1,105,-1
 555 368 l 1,106,-1
 555 306 l 1,107,-1
 45 306 l 1,104,-1
EndSplineSet
Validated: 3073
EndChar

StartChar: uni225C
Encoding: 8796 8796 60
Width: 600
Flags: W
LayerCount: 2
Fore
SplineSet
169.913085938 426.704101562 m 1,0,-1
 169.913085938 446.120117188 l 1,1,-1
 276.807617188 681.446289062 l 1,2,-1
 325.90625 681.446289062 l 1,3,-1
 432.80078125 446.120117188 l 1,4,-1
 432.80078125 426.704101562 l 1,5,-1
 169.913085938 426.704101562 l 1,0,-1
216.455078125 454.276367188 m 1,6,-1
 385.747070312 454.276367188 l 1,7,-1
 336.135742188 568.056640625 l 2,8,9
 327.51953125 588.625 327.51953125 588.625 319.001953125 610.383789062 c 0,10,11
 310.080078125 632.112304688 310.080078125 632.112304688 301.868164062 653.875976562 c 1,12,-1
 299.823242188 653.875976562 l 1,13,14
 291.549804688 632.112304688 291.549804688 632.112304688 282.688476562 610.383789062 c 0,15,16
 272.021484375 583.041992188 272.021484375 583.041992188 265.5546875 568.056640625 c 2,17,-1
 216.455078125 454.276367188 l 1,6,-1
85 133 m 1,18,-1
 85 195 l 1,19,-1
 515 195 l 1,20,-1
 515 133 l 1,21,-1
 85 133 l 1,18,-1
85 286 m 5,22,-1
 85 348 l 5,23,-1
 515 348 l 5,24,-1
 515 286 l 5,25,-1
 85 286 l 5,22,-1
EndSplineSet
Validated: 2049
EndChar

StartChar: uni2A75
Encoding: 10869 10869 61
Width: 600
Flags: W
LayerCount: 2
Fore
SplineSet
335 193 m 5,0,-1
 335 255 l 5,1,-1
 565 255 l 5,2,-1
 565 193 l 5,3,-1
 335 193 l 5,0,-1
335 406 m 5,4,-1
 335 468 l 5,5,-1
 565 468 l 5,6,-1
 565 406 l 5,7,-1
 335 406 l 5,4,-1
35 193 m 5,8,-1
 35 255 l 5,9,-1
 265 255 l 5,10,-1
 265 193 l 5,11,-1
 35 193 l 5,8,-1
35 406 m 5,12,-1
 35 468 l 5,13,-1
 265 468 l 5,14,-1
 265 406 l 5,15,-1
 35 406 l 5,12,-1
EndSplineSet
Validated: 2049
EndChar

StartChar: uni2A76
Encoding: 10870 10870 62
Width: 600
Flags: W
LayerCount: 2
Fore
SplineSet
435 193 m 1,0,-1
 435 255 l 1,1,-1
 585 255 l 1,2,-1
 585 193 l 1,3,-1
 435 193 l 1,0,-1
435 406 m 1,4,-1
 435 468 l 1,5,-1
 585 468 l 1,6,-1
 585 406 l 1,7,-1
 435 406 l 1,4,-1
225 193 m 1,8,-1
 225 255 l 1,9,-1
 375 255 l 1,10,-1
 375 193 l 1,11,-1
 225 193 l 1,8,-1
225 406 m 1,12,-1
 225 468 l 1,13,-1
 375 468 l 1,14,-1
 375 406 l 1,15,-1
 225 406 l 1,12,-1
15 193 m 1,16,-1
 15 255 l 1,17,-1
 165 255 l 1,18,-1
 165 193 l 1,19,-1
 15 193 l 1,16,-1
15 406 m 1,20,-1
 15 468 l 1,21,-1
 165 468 l 1,22,-1
 165 406 l 1,23,-1
 15 406 l 1,20,-1
EndSplineSet
Validated: 2049
EndChar

StartChar: uni291A
Encoding: 10522 10522 63
Width: 600
Flags: W
LayerCount: 2
Fore
SplineSet
114 295 m 1,0,-1
 8 400 l 1,1,-1
 56 448 l 1,2,-1
 188 316 l 1,3,-1
 573 316 l 1,4,-1
 573 230 l 1,5,-1
 188 230 l 1,6,-1
 56 98 l 1,7,-1
 8 146 l 1,8,-1
 114 251 l 1,9,-1
 114 295 l 1,0,-1
EndSplineSet
Validated: 1
EndChar

StartChar: uni291C
Encoding: 10524 10524 64
Width: 600
Flags: W
LayerCount: 2
Fore
SplineSet
114 295 m 1,0,-1
 8 400 l 1,1,-1
 56 448 l 1,2,-1
 188 316 l 1,3,-1
 273 316 l 1,4,-1
 178 410 l 1,5,-1
 226 458 l 1,6,-1
 368 316 l 1,7,-1
 573 316 l 1,8,-1
 573 230 l 1,9,-1
 368 230 l 1,10,-1
 226 88 l 1,11,-1
 178 136 l 1,12,-1
 273 230 l 1,13,-1
 188 230 l 1,14,-1
 56 98 l 1,15,-1
 8 146 l 1,16,-1
 114 251 l 1,17,-1
 114 295 l 1,0,-1
EndSplineSet
Validated: 1
EndChar

StartChar: uni2254
Encoding: 8788 8788 65
Width: 600
Flags: W
LayerCount: 2
Fore
SplineSet
79 154 m 256,0,1
 54 154 54 154 36 171 c 128,-1,2
 18 188 18 188 18 214 c 0,3,4
 18 215 18 215 18 217 c 256,5,6
 19 247 19 247 36 263 c 128,-1,7
 53 279 53 279 79 280 c 256,8,9
 80 280 80 280 82 280 c 0,10,11
 105 280 105 280 122 263 c 0,12,13
 140 245 140 245 140 217 c 256,14,15
 140 188 140 188 122.5 171 c 128,-1,16
 105 154 105 154 79 154 c 256,0,1
79 382 m 256,17,18
 54 382 54 382 36 400 c 128,-1,19
 18 418 18 418 18 445 c 256,20,21
 18 474 18 474 36 491 c 0,22,23
 54 509 54 509 79 509 c 256,24,25
 105 509 105 509 122 491 c 0,26,27
 140 474 140 474 140 445 c 256,28,29
 140 418 140 418 122 400 c 0,30,31
 105 382 105 382 79 382 c 256,17,18
225 193 m 1,32,-1
 225 255 l 1,33,-1
 575 255 l 1,34,-1
 575 193 l 1,35,-1
 225 193 l 1,32,-1
225 406 m 1,36,-1
 225 468 l 1,37,-1
 575 468 l 1,38,-1
 575 406 l 1,39,-1
 225 406 l 1,36,-1
EndSplineSet
Validated: 2049
EndChar

StartChar: uni2A74
Encoding: 10868 10868 66
Width: 600
Flags: W
LayerCount: 2
Fore
SplineSet
66 154 m 256,0,1
 40 154 40 154 23 171 c 128,-1,2
 6 188 6 188 6 217 c 256,3,4
 6 245 6 245 23.5 262.5 c 128,-1,5
 41 280 41 280 66 280 c 256,6,7
 92 280 92 280 109.5 262.5 c 128,-1,8
 127 245 127 245 127 217 c 256,9,10
 127 189 127 189 109.5 171.5 c 128,-1,11
 92 154 92 154 66 154 c 256,0,1
66 382 m 256,12,13
 41 382 41 382 23 400 c 0,14,15
 6 418 6 418 6 445 c 256,16,17
 6 474 6 474 23 491 c 0,18,19
 41 509 41 509 66 509 c 256,20,21
 92 509 92 509 109 491 c 0,22,23
 127 474 127 474 127 445 c 256,24,25
 127 418 127 418 109 400 c 0,26,27
 92 382 92 382 66 382 c 256,12,13
226 154 m 256,28,29
 200 154 200 154 183 171 c 128,-1,30
 166 188 166 188 166 217 c 256,31,32
 166 245 166 245 183.5 262.5 c 128,-1,33
 201 280 201 280 226 280 c 256,34,35
 252 280 252 280 269.5 262.5 c 128,-1,36
 287 245 287 245 287 217 c 256,37,38
 287 189 287 189 269.5 171.5 c 128,-1,39
 252 154 252 154 226 154 c 256,28,29
226 382 m 256,40,41
 201 382 201 382 183 400 c 0,42,43
 166 418 166 418 166 445 c 256,44,45
 166 474 166 474 183 491 c 0,46,47
 201 509 201 509 226 509 c 256,48,49
 252 509 252 509 269 491 c 0,50,51
 287 474 287 474 287 445 c 256,52,53
 287 418 287 418 269 400 c 0,54,55
 252 382 252 382 226 382 c 256,40,41
322 193 m 1,56,-1
 322 255 l 1,57,-1
 592 255 l 1,58,-1
 592 193 l 1,59,-1
 322 193 l 1,56,-1
322 406 m 1,60,-1
 322 468 l 1,61,-1
 592 468 l 1,62,-1
 592 406 l 1,63,-1
 322 406 l 1,60,-1
EndSplineSet
Validated: 2049
EndChar

StartChar: uni2912
Encoding: 10514 10514 67
Width: 600
Flags: W
LayerCount: 2
Fore
SplineSet
278 561 m 5,0,-1
 125 561 l 5,1,-1
 125 647 l 5,2,-1
 475 647 l 5,3,-1
 475 561 l 5,4,-1
 322 561 l 5,5,-1
 475 408 l 5,6,-1
 427 361 l 5,7,-1
 343 445 l 5,8,-1
 343 1 l 5,9,-1
 257 1 l 5,10,-1
 257 445 l 5,11,-1
 173 361 l 5,12,-1
 125 408 l 5,13,-1
 278 561 l 5,0,-1
EndSplineSet
Validated: 1
EndChar

StartChar: uni2907
Encoding: 10503 10503 68
Width: 600
Flags: W
LayerCount: 2
Fore
SplineSet
16 448 m 1,0,-1
 92 448 l 1,1,-1
 92 359 l 1,2,-1
 429 359 l 1,3,-1
 388 400 l 1,4,-1
 436 448 l 1,5,-1
 589 295 l 1,6,-1
 589 251 l 1,7,-1
 436 98 l 1,8,-1
 388 146 l 1,9,-1
 429 187 l 1,10,-1
 92 187 l 1,11,-1
 92 98 l 1,12,-1
 16 98 l 1,13,-1
 16 448 l 1,0,-1
92 316 m 1,14,-1
 92 230 l 1,15,-1
 473 230 l 1,16,-1
 516 273 l 1,17,-1
 473 316 l 1,18,-1
 92 316 l 1,14,-1
EndSplineSet
Validated: 1
EndChar

StartChar: uni210F
Encoding: 8463 8463 69
Width: 600
Flags: W
LayerCount: 2
Fore
SplineSet
23 564 m 5,0,-1
 23 630 l 5,1,-1
 415 630 l 5,2,-1
 415 564 l 5,3,-1
 23 564 l 5,0,-1
93 0 m 1,4,-1
 93 712 l 1,5,-1
 175 712 l 1,6,-1
 175 518 l 1,7,-1
 170 403 l 1,8,-1
 173 403 l 1,9,10
 211 444 211 444 254.5 471 c 128,-1,11
 298 498 298 498 355 498 c 0,12,13
 442 498 442 498 482.5 448.5 c 128,-1,14
 523 399 523 399 523 302 c 2,15,-1
 523 0 l 1,16,-1
 441 0 l 1,17,-1
 441 291 l 2,18,19
 441 360 441 360 415 393.5 c 128,-1,20
 389 427 389 427 329 427 c 0,21,22
 307 427 307 427 288.5 421.5 c 128,-1,23
 270 416 270 416 252 405 c 128,-1,24
 234 394 234 394 215 377.5 c 128,-1,25
 196 361 196 361 175 339 c 1,26,-1
 175 0 l 1,27,-1
 93 0 l 1,4,-1
EndSplineSet
Validated: 5
EndChar

StartChar: uni22C2
Encoding: 8898 8898 70
Width: 600
Flags: W
LayerCount: 2
Fore
SplineSet
74 -110 m 1,0,-1
 74 435 l 2,1,2
 74 484 74 484 93 526 c 0,3,4
 111 566 111 566 140 592 c 0,5,6
 168 619 168 619 210 634.5 c 128,-1,7
 252 650 252 650 301 650 c 256,8,9
 349 650 349 650 391 634.5 c 128,-1,10
 433 619 433 619 463 591 c 0,11,12
 494 562 494 562 510 524 c 0,13,14
 527 483 527 483 527 435 c 2,15,-1
 527 -110 l 1,16,-1
 461 -111 l 1,17,-1
 461 424 l 2,18,19
 461 502 461 502 417 544 c 128,-1,20
 373 586 373 586 300 586 c 256,21,22
 228 586 228 586 183 544 c 0,23,24
 139 503 139 503 139 424 c 2,25,-1
 139 -111 l 1,26,-1
 74 -110 l 1,0,-1
EndSplineSet
Validated: 1
EndChar

StartChar: uni22C0
Encoding: 8896 8896 71
Width: 600
Flags: W
LayerCount: 2
Back
SplineSet
74.1103515625 -110 m 5,0,-1
 74.1103515625 435 l 6,1,2
 74 484 74 484 91.3154296875 523.5 c 4,3,4
 109 563 109 563 138.490234375 591 c 132,-1,5
 168 619 168 619 210.084960938 634.5 c 132,-1,6
 252 650 252 650 300.549804688 650 c 260,7,8
 349 650 349 650 391.014648438 634.5 c 132,-1,9
 433 619 433 619 462.610351562 591 c 4,10,11
 493 563 493 563 509.78515625 523.5 c 4,12,13
 526.990234375 484.022407533 526.990234375 484.022407533 526.990234375 435 c 6,14,-1
 526.990234375 -110 l 5,15,-1
 461.446289062 -110.57421875 l 5,16,-1
 461.446289062 424.462890625 l 6,17,18
 461 503 461 503 417.315429688 544.41015625 c 4,19,20
 373 586 373 586 300.020507812 586.06640625 c 260,21,22
 227 586 227 586 182.725585938 544.41015625 c 4,23,24
 138.594726562 502.616187273 138.594726562 502.616187273 138.594726562 424.462890625 c 6,25,-1
 138.594726562 -110.57421875 l 5,26,-1
 74.1103515625 -110 l 5,0,-1
EndSplineSet
Fore
SplineSet
251 661 m 5,0,-1
 352 661 l 5,1,-1
 574 -107 l 5,2,-1
 487 -107 l 5,3,-1
 364 329 l 6,4,5
 348 387 348 387 333 443 c 4,6,7
 319 499 319 499 305 555 c 5,8,9
 301 555 l 5,10,11
 287 500 287 500 272 443 c 4,12,13
 262 403 262 403 240 329 c 6,14,-1
 117 -107 l 5,15,-1
 26 -107 l 5,16,-1
 251 661 l 5,0,-1
EndSplineSet
Validated: 1
EndChar

StartChar: uni2A0A
Encoding: 10762 10762 72
Width: 600
Flags: W
LayerCount: 2
Fore
SplineSet
316 408 m 0,0,1
 329 410 329 410 339 410 c 0,2,3
 370 409 370 409 396 398 c 0,4,5
 436 383 436 383 461 350 c 0,6,7
 491 310 491 310 491 259 c 0,8,9
 491 214 491 214 458 167 c 0,10,11
 435 134 435 134 394 119 c 0,12,13
 367 109 367 109 340 109 c 0,14,15
 328 109 328 109 317 111 c 0,16,17
 297 115 297 115 291 116 c 1,18,-1
 174 -45 l 1,19,-1
 174 -49 l 1,20,-1
 549 -49 l 1,21,-1
 549 -120 l 1,22,-1
 70 -120 l 1,23,-1
 70 -67 l 1,24,-1
 232 155 l 1,25,26
 209 180 209 180 199 212 c 0,27,28
 191 237 191 237 190 259 c 0,29,30
 190 324 190 324 234 365 c 1,31,-1
 81 585 l 1,32,-1
 81 638 l 1,33,-1
 521 638 l 1,34,-1
 521 567 l 1,35,-1
 184 567 l 1,36,-1
 184 563 l 1,37,-1
 296 403 l 1,38,39
 308 406 308 406 316 408 c 0,0,1
369 347 m 0,40,41
 347 352 347 352 332 352 c 1,42,-1
 396 260 l 1,43,-1
 330 169 l 1,44,45
 335 169 335 169 341 168 c 0,46,47
 359 168 359 168 369 171 c 0,48,49
 387 178 387 178 406 194 c 0,50,51
 431 219 431 219 431 260 c 0,52,53
 431 299 431 299 406 325 c 0,54,55
 387 340 387 340 369 347 c 0,40,41
268 317 m 1,56,57
 264 312 264 312 261 305 c 0,58,59
 250 284 250 284 250 260 c 0,60,61
 250 226 250 226 267 203 c 1,62,-1
 308 259 l 1,63,-1
 268 317 l 1,56,57
EndSplineSet
Validated: 1
EndChar

StartChar: asteriskmath
Encoding: 8727 8727 73
Width: 600
Flags: W
LayerCount: 2
Fore
SplineSet
475.973632812 382.033203125 m 5,0,-1
 335.650390625 313.700195312 l 5,1,-1
 475.973632812 244.991210938 l 5,2,-1
 444.427734375 197.946289062 l 5,3,-1
 322.418945312 279.680664062 l 5,4,-1
 327.418945312 137.174804688 l 5,5,-1
 273.950195312 137.174804688 l 5,6,-1
 278.950195312 279.680664062 l 5,7,-1
 156.942382812 197.946289062 l 5,8,-1
 125.395507812 244.991210938 l 5,9,-1
 265.719726562 313.700195312 l 5,10,-1
 125.395507812 382.033203125 l 5,11,-1
 156.942382812 429.454101562 l 5,12,-1
 278.950195312 347.720703125 l 5,13,-1
 273.950195312 490.2265625 l 5,14,-1
 327.418945312 490.2265625 l 5,15,-1
 322.418945312 347.720703125 l 5,16,-1
 444.427734375 429.454101562 l 5,17,-1
 475.973632812 382.033203125 l 5,0,-1
EndSplineSet
Validated: 1
EndChar

StartChar: uni2A09
Encoding: 10761 10761 74
Width: 600
Flags: W
LayerCount: 2
Fore
SplineSet
46 26 m 5,0,-1
 2 71 l 5,1,-1
 256 330 l 1,2,-1
 2 588 l 1,3,-1
 46 633 l 1,4,-1
 300 374 l 1,5,-1
 554 633 l 1,6,-1
 598 588 l 1,7,-1
 344 330 l 1,8,-1
 598 71 l 5,9,-1
 554 26 l 5,10,-1
 300 286 l 1,11,-1
 46 26 l 5,0,-1
EndSplineSet
Validated: 1
EndChar

StartChar: uni2A01
Encoding: 10753 10753 75
Width: 600
Flags: W
LayerCount: 2
Fore
SplineSet
299 626 m 128,-1,1
 363 626 363 626 418.5 603 c 128,-1,2
 474 580 474 580 519 535 c 0,3,4
 565 489 565 489 587 434 c 256,5,6
 610 379 610 379 610 313 c 0,7,8
 610 250 610 250 587 196 c 256,9,10
 564 141 564 141 519 95 c 0,11,12
 473 50 473 50 418 27 c 128,-1,13
 363 4 363 4 299 4 c 128,-1,14
 235 4 235 4 180 27 c 128,-1,15
 125 50 125 50 80 95 c 0,16,17
 34 141 34 141 11 196 c 260,18,19
 -11 251 -11 251 -11 313 c 0,20,21
 -11 378 -11 378 11 434 c 0,22,23
 34 489 34 489 80 535 c 256,24,25
 126 581 126 581 180.5 603.5 c 128,-1,0
 235 626 235 626 299 626 c 128,-1,1
300 564 m 0,26,27
 246 564 246 564 205 546 c 0,28,29
 161 527 161 527 125 491 c 0,30,31
 88 453 88 453 70 410 c 0,32,33
 52 366 52 366 52 313 c 0,34,35
 52 263 52 263 70 219 c 0,36,37
 88 176 88 176 125 138 c 0,38,39
 159 104 159 104 205 84 c 0,40,41
 250 65 250 65 301 65 c 0,42,43
 351 65 351 65 395 84 c 0,44,45
 444 105 444 105 476 138 c 0,46,47
 513 176 513 176 531 219 c 0,48,49
 548 263 548 263 548 313 c 0,50,51
 548 366 548 366 530 410 c 0,52,53
 512 453 512 453 476 491 c 0,54,55
 440 527 440 527 395 546 c 0,56,57
 351 564 351 564 300 564 c 0,26,27
267 543 m 1,58,-1
 335 543 l 1,59,-1
 335 348 l 1,60,-1
 530 348 l 1,61,-1
 530 279 l 1,62,-1
 335 279 l 1,63,-1
 335 86 l 1,64,-1
 267 86 l 1,65,-1
 267 279 l 1,66,-1
 72 279 l 1,67,-1
 72 348 l 1,68,-1
 267 348 l 1,69,-1
 267 543 l 1,58,-1
EndSplineSet
Validated: 1
EndChar

StartChar: uni2A00
Encoding: 10752 10752 76
Width: 600
Flags: W
LayerCount: 2
Fore
SplineSet
300 379 m 4,0,1
 314 379 314 379 326.5 374 c 132,-1,2
 339 369 339 369 349 359 c 132,-1,3
 359 349 359 349 363.5 336.5 c 132,-1,4
 368 324 368 324 368 309 c 4,5,6
 368 280 368 280 348 260.5 c 132,-1,7
 328 241 328 241 299 241 c 260,8,9
 270 241 270 241 250.5 260.5 c 132,-1,10
 231 280 231 280 231 309 c 260,11,12
 231 338 231 338 251 358.5 c 132,-1,13
 271 379 271 379 300 379 c 4,0,1
299 626 m 128,-1,15
 363 626 363 626 418.5 603 c 128,-1,16
 474 580 474 580 519 535 c 0,17,18
 565 489 565 489 587 434 c 256,19,20
 610 379 610 379 610 313 c 0,21,22
 610 250 610 250 587 196 c 256,23,24
 564 141 564 141 519 95 c 0,25,26
 473 50 473 50 418 27 c 128,-1,27
 363 4 363 4 299 4 c 128,-1,28
 235 4 235 4 180 27 c 128,-1,29
 125 50 125 50 80 95 c 0,30,31
 34 141 34 141 11 196 c 260,32,33
 -11 251 -11 251 -11 313 c 0,34,35
 -11 378 -11 378 11 434 c 0,36,37
 34 489 34 489 80 535 c 256,38,39
 126 581 126 581 180.5 603.5 c 128,-1,14
 235 626 235 626 299 626 c 128,-1,15
300 564 m 0,40,41
 246 564 246 564 205 546 c 0,42,43
 161 527 161 527 125 491 c 0,44,45
 88 453 88 453 70 410 c 0,46,47
 52 366 52 366 52 313 c 0,48,49
 52 263 52 263 70 219 c 0,50,51
 88 176 88 176 125 138 c 0,52,53
 159 104 159 104 205 84 c 0,54,55
 250 65 250 65 301 65 c 0,56,57
 351 65 351 65 395 84 c 0,58,59
 444 105 444 105 476 138 c 0,60,61
 513 176 513 176 531 219 c 0,62,63
 548 263 548 263 548 313 c 0,64,65
 548 366 548 366 530 410 c 0,66,67
 512 453 512 453 476 491 c 0,68,69
 440 527 440 527 395 546 c 0,70,71
 351 564 351 564 300 564 c 0,40,41
EndSplineSet
Validated: 1
EndChar

StartChar: uni2A02
Encoding: 10754 10754 77
Width: 600
Flags: W
LayerCount: 2
Fore
SplineSet
299 626 m 128,-1,1
 363 626 363 626 418.5 603 c 128,-1,2
 474 580 474 580 519 535 c 0,3,4
 565 489 565 489 587 434 c 256,5,6
 610 379 610 379 610 313 c 0,7,8
 610 250 610 250 587 196 c 256,9,10
 564 141 564 141 519 95 c 0,11,12
 473 50 473 50 418 27 c 128,-1,13
 363 4 363 4 299 4 c 128,-1,14
 235 4 235 4 180 27 c 128,-1,15
 125 50 125 50 80 95 c 0,16,17
 34 141 34 141 11 196 c 260,18,19
 -11 251 -11 251 -11 313 c 4,20,21
 -11 378 -11 378 11 434 c 0,22,23
 34 489 34 489 80 535 c 256,24,25
 126 581 126 581 180.5 603.5 c 128,-1,0
 235 626 235 626 299 626 c 128,-1,1
300 564 m 0,26,27
 246 564 246 564 205 546 c 0,28,29
 161 527 161 527 125 491 c 0,30,31
 88 453 88 453 70 410 c 0,32,33
 52 366 52 366 52 313 c 0,34,35
 52 263 52 263 70 219 c 0,36,37
 88 176 88 176 125 138 c 0,38,39
 159 104 159 104 205 84 c 0,40,41
 250 65 250 65 301 65 c 0,42,43
 351 65 351 65 395 84 c 0,44,45
 444 105 444 105 476 138 c 0,46,47
 513 176 513 176 531 219 c 0,48,49
 548 263 548 263 548 313 c 0,50,51
 548 366 548 366 530 410 c 0,52,53
 512 453 512 453 476 491 c 0,54,55
 440 527 440 527 395 546 c 0,56,57
 351 564 351 564 300 564 c 0,26,27
116 451 m 1,58,-1
 164 500 l 1,59,-1
 302 362 l 1,60,-1
 440 500 l 1,61,-1
 489 451 l 1,62,-1
 351 313 l 1,63,-1
 487 176 l 1,64,-1
 439 128 l 1,65,-1
 303 265 l 1,66,-1
 165 127 l 1,67,-1
 116 176 l 1,68,-1
 254 314 l 1,69,-1
 116 451 l 1,58,-1
EndSplineSet
Validated: 1
EndChar

StartChar: uni22A8
Encoding: 8872 8872 78
Width: 600
Flags: W
LayerCount: 2
Fore
SplineSet
125 362 m 1,0,-1
 125 265 l 1,1,-1
 559 265 l 1,2,-1
 559 182 l 1,3,-1
 125 182 l 1,4,-1
 125 0 l 1,5,-1
 43 0 l 1,6,-1
 43 627 l 1,7,-1
 125 627 l 1,8,-1
 125 445 l 1,9,-1
 559 445 l 1,10,-1
 559 362 l 1,11,-1
 125 362 l 1,0,-1
EndSplineSet
EndChar

StartChar: uni22A9
Encoding: 8873 8873 79
Width: 600
Flags: W
LayerCount: 2
Fore
SplineSet
125 627 m 1,0,-1
 125 0 l 1,1,-1
 43 0 l 1,2,-1
 43 627 l 1,3,-1
 125 627 l 1,0,-1
285 627 m 1,4,-1
 285 355 l 1,5,-1
 569 355 l 1,6,-1
 569 272 l 1,7,-1
 285 272 l 1,8,-1
 285 0 l 1,9,-1
 203 0 l 1,10,-1
 203 627 l 1,11,-1
 285 627 l 1,4,-1
EndSplineSet
EndChar

StartChar: uni22AB
Encoding: 8875 8875 80
Width: 600
Flags: W
LayerCount: 2
Fore
SplineSet
125 627 m 1,0,-1
 125 0 l 1,1,-1
 43 0 l 1,2,-1
 43 627 l 1,3,-1
 125 627 l 1,0,-1
285 362 m 1,4,-1
 285 265 l 1,5,-1
 569 265 l 1,6,-1
 569 182 l 1,7,-1
 285 182 l 1,8,-1
 285 0 l 1,9,-1
 203 0 l 1,10,-1
 203 627 l 1,11,-1
 285 627 l 1,12,-1
 285 445 l 1,13,-1
 569 445 l 1,14,-1
 569 362 l 1,15,-1
 285 362 l 1,4,-1
EndSplineSet
EndChar
